<?xml version="1.0" encoding="UTF-8" standalone="no"?>
<svg
   viewBox="0 0 1172.9301 252.5567"
   height="252.5567"
   width="1172.9301"
   xml:space="preserve"
   id="svg2"
   version="1.1"
   sodipodi:docname="2022-LOGO-BONITASOFT-_2__1.svg"
   inkscape:version="1.1.1 (c3084ef, 2021-09-22)"
   xmlns:inkscape="http://www.inkscape.org/namespaces/inkscape"
   xmlns:sodipodi="http://sodipodi.sourceforge.net/DTD/sodipodi-0.dtd"
   xmlns="http://www.w3.org/2000/svg"
   xmlns:svg="http://www.w3.org/2000/svg"
   xmlns:rdf="http://www.w3.org/1999/02/22-rdf-syntax-ns#"
   xmlns:cc="http://creativecommons.org/ns#"
   xmlns:dc="http://purl.org/dc/elements/1.1/"><sodipodi:namedview
     id="namedview918"
     pagecolor="#ffffff"
     bordercolor="#666666"
     borderopacity="1.0"
     inkscape:pageshadow="2"
     inkscape:pageopacity="0.0"
     inkscape:pagecheckerboard="0"
     showgrid="false"
     inkscape:zoom="0.25722563"
     inkscape:cx="-347.94355"
     inkscape:cy="126.34822"
     inkscape:window-width="1680"
     inkscape:window-height="997"
     inkscape:window-x="0"
     inkscape:window-y="25"
     inkscape:window-maximized="1"
     inkscape:current-layer="g10" /><metadata
     id="metadata8"><rdf:RDF><cc:Work
         rdf:about=""><dc:format>image/svg+xml</dc:format><dc:type
           rdf:resource="http://purl.org/dc/dcmitype/StillImage" /></cc:Work></rdf:RDF></metadata><defs
     id="defs6"><clipPath
       id="clipPath18"
       clipPathUnits="userSpaceOnUse"><path
         id="path16"
         d="M 0,1080 H 1920 V 0 H 0 Z" /></clipPath></defs><g
     transform="matrix(1.3333333,0,0,-1.3333333,-693.53486,846.27811)"
     id="g10"><g
       id="g12"><g
         clip-path="url(#clipPath18)"
         id="g14"><g
           transform="translate(752.8477,496.6777)"
           id="g20"><path
             id="path22"
             style="fill:#002395;fill-opacity:1;fill-rule:nonzero;stroke:none"
             d="m 0,0 c 5.624,0 9.994,1.13 13.109,3.391 3.113,2.259 4.671,5.548 4.671,9.869 0,4.317 -1.558,7.557 -4.671,9.719 -3.115,2.158 -7.585,3.238 -13.41,3.238 H -23.958 V 0 Z m -3.767,39.328 c 5.223,0 9.391,1.153 12.506,3.464 3.112,2.31 4.672,5.523 4.672,9.644 0,4.22 -1.533,7.383 -4.597,9.494 -3.065,2.108 -7.257,3.163 -12.581,3.163 H -23.958 V 39.328 Z m 1.507,43.696 c 5.624,0 10.673,-0.656 15.143,-1.96 4.469,-1.306 8.287,-3.163 11.452,-5.573 3.164,-2.412 5.598,-5.351 7.308,-8.816 1.706,-3.465 2.561,-7.309 2.561,-11.526 0,-5.327 -1.258,-9.771 -3.767,-13.336 -2.511,-3.567 -6.078,-6.355 -10.699,-8.362 5.928,-1.71 10.548,-4.497 13.863,-8.364 3.315,-3.867 4.972,-8.865 4.972,-14.991 0,-4.321 -0.853,-8.212 -2.56,-11.678 -1.71,-3.466 -4.144,-6.403 -7.309,-8.814 -3.163,-2.412 -6.982,-4.271 -11.451,-5.577 C 12.781,-17.279 7.734,-17.93 2.11,-17.93 H -43.696 V 83.024 Z" /></g><g
           transform="translate(814.9272,518.0742)"
           id="g24"><path
             id="path26"
             style="fill:#002395;fill-opacity:1;fill-rule:nonzero;stroke:none"
             d="m 0,0 c 0,-2.915 0.5,-5.703 1.507,-8.363 1.002,-2.662 2.433,-4.997 4.293,-7.006 1.858,-2.012 4.117,-3.615 6.781,-4.822 2.66,-1.205 5.599,-1.807 8.814,-1.807 3.214,0 6.127,0.602 8.74,1.807 2.611,1.207 4.844,2.81 6.704,4.822 1.859,2.009 3.291,4.344 4.296,7.006 1.002,2.66 1.507,5.448 1.507,8.363 0,2.912 -0.505,5.726 -1.507,8.438 -1.005,2.713 -2.437,5.07 -4.296,7.082 -1.86,2.008 -4.093,3.615 -6.704,4.822 -2.613,1.205 -5.526,1.806 -8.74,1.806 -3.215,0 -6.154,-0.601 -8.814,-1.806 C 9.917,19.135 7.658,17.528 5.8,15.52 3.94,13.508 2.509,11.151 1.507,8.438 0.5,5.726 0,2.912 0,0 m -19.89,0 c 0,5.824 1.056,11.225 3.164,16.198 2.11,4.972 4.996,9.291 8.664,12.958 3.666,3.667 8.009,6.529 13.034,8.589 5.022,2.058 10.446,3.088 16.273,3.088 5.824,0 11.249,-1.03 16.273,-3.088 5.022,-2.06 9.392,-4.922 13.109,-8.589 3.715,-3.667 6.63,-7.986 8.739,-12.958 2.11,-4.973 3.165,-10.374 3.165,-16.198 0,-5.727 -1.055,-11.074 -3.165,-16.048 -2.109,-4.972 -5.024,-9.292 -8.739,-12.957 -3.717,-3.669 -8.087,-6.53 -13.109,-8.589 -5.024,-2.058 -10.449,-3.089 -16.273,-3.089 -5.827,0 -11.251,1.031 -16.273,3.089 -5.025,2.059 -9.394,4.92 -13.109,8.589 -3.717,3.665 -6.607,7.985 -8.664,12.957 -2.06,4.974 -3.089,10.321 -3.089,16.048" /></g><g
           transform="translate(884.3892,557.4009)"
           id="g28"><path
             id="path30"
             style="fill:#002395;fill-opacity:1;fill-rule:nonzero;stroke:none"
             d="m 0,0 h 18.984 v -12.506 c 2.912,4.318 6.631,7.734 11.151,10.246 4.521,2.51 9.693,3.767 15.52,3.767 4.219,0 8.035,-0.704 11.45,-2.111 3.415,-1.406 6.303,-3.39 8.665,-5.95 2.358,-2.562 4.167,-5.6 5.425,-9.117 1.254,-3.517 1.884,-7.382 1.884,-11.601 V -78.653 H 54.092 v 45.203 c 0,5.221 -1.457,9.242 -4.369,12.055 -2.914,2.811 -6.63,4.217 -11.15,4.217 -2.814,0 -5.401,-0.627 -7.761,-1.883 -2.36,-1.257 -4.395,-2.888 -6.102,-4.897 -1.709,-2.01 -3.065,-4.345 -4.068,-7.006 -1.006,-2.661 -1.559,-5.349 -1.658,-8.062 V -78.653 H 0 Z" /></g><path
           id="path32"
           style="fill:#002395;fill-opacity:1;fill-rule:nonzero;stroke:none"
           d="m 969.219,557.401 h 18.984 v -78.653 h -18.984 z m -2.111,21.848 c 0,3.113 1.13,5.775 3.391,7.987 2.26,2.207 4.995,3.314 8.212,3.314 3.214,0 5.952,-1.107 8.212,-3.314 2.261,-2.212 3.39,-4.874 3.39,-7.987 0,-3.217 -1.129,-5.902 -3.39,-8.061 -2.26,-2.161 -4.998,-3.24 -8.212,-3.24 -3.217,0 -5.952,1.079 -8.212,3.24 -2.261,2.159 -3.391,4.844 -3.391,8.061" /><g
           transform="translate(1027.3779,580.6055)"
           id="g34"><path
             id="path36"
             style="fill:#002395;fill-opacity:1;fill-rule:nonzero;stroke:none"
             d="M 0,0 V -23.205 H 19.588 V -39.026 H 0 v -35.559 c 0,-4.422 1.004,-7.384 3.014,-8.891 2.008,-1.506 4.77,-2.26 8.287,-2.26 1.305,0 2.637,0.077 3.994,0.226 1.356,0.151 2.786,0.324 4.293,0.528 v -17.329 c -4.62,-0.603 -8.889,-0.903 -12.808,-0.903 -4.018,0 -7.634,0.403 -10.847,1.205 -3.216,0.802 -5.928,2.186 -8.137,4.144 -2.21,1.959 -3.894,4.52 -5.047,7.685 -1.157,3.164 -1.733,7.054 -1.733,11.678 v 39.476 h -13.412 v 15.821 h 13.412 V 0 Z" /></g><g
           transform="translate(1112.5107,521.6914)"
           id="g38"><path
             id="path40"
             style="fill:#002395;fill-opacity:1;fill-rule:nonzero;stroke:none"
             d="m 0,0 c -0.705,5.221 -2.965,9.617 -6.78,13.185 -3.821,3.563 -8.691,5.346 -14.616,5.346 -3.316,0 -6.33,-0.601 -9.041,-1.806 -2.712,-1.207 -4.999,-2.814 -6.856,-4.823 -1.859,-2.011 -3.291,-4.368 -4.295,-7.082 -1.005,-2.712 -1.507,-5.574 -1.507,-8.587 0,-2.917 0.502,-5.677 1.507,-8.288 1.004,-2.613 2.436,-4.923 4.295,-6.931 1.857,-2.012 4.144,-3.616 6.856,-4.823 2.711,-1.205 5.725,-1.806 9.041,-1.806 2.912,0 5.624,0.473 8.135,1.43 2.511,0.954 4.696,2.26 6.556,3.917 1.856,1.659 3.363,3.617 4.52,5.877 1.154,2.26 1.883,4.646 2.185,7.158 z M 18.984,-42.943 H 0 v 10.396 c -2.412,-3.719 -5.627,-6.605 -9.644,-8.664 -4.018,-2.059 -9.041,-3.089 -15.068,-3.089 -5.525,0 -10.622,1.03 -15.294,3.089 -4.671,2.059 -8.716,4.92 -12.129,8.589 -3.416,3.665 -6.053,7.985 -7.911,12.957 -1.859,4.974 -2.787,10.321 -2.787,16.048 0,5.824 0.928,11.224 2.787,16.198 1.858,4.972 4.495,9.291 7.911,12.958 3.413,3.667 7.458,6.528 12.129,8.588 4.672,2.059 9.818,3.089 15.444,3.089 6.028,0 11.025,-1.03 14.994,-3.089 3.966,-2.06 7.156,-4.948 9.568,-8.664 v 10.246 h 18.984 z" /></g><g
           transform="translate(1141.2881,534.7988)"
           id="g42"><path
             id="path44"
             style="fill:#e20613;fill-opacity:1;fill-rule:nonzero;stroke:none"
             d="m 0,0 c 0,7.634 2.813,13.561 8.438,17.781 5.625,4.218 13.46,6.328 23.506,6.328 10.245,0 18.105,-2.16 23.581,-6.479 5.474,-4.32 8.311,-10.396 8.513,-18.234 H 44.752 c -0.102,2.915 -1.28,5.25 -3.541,7.008 -2.26,1.757 -5.3,2.637 -9.115,2.637 -4.221,0 -7.436,-0.73 -9.645,-2.184 -2.21,-1.458 -3.314,-3.542 -3.314,-6.253 0,-2.814 1.153,-4.898 3.465,-6.254 2.31,-1.357 5.199,-2.437 8.664,-3.241 3.466,-0.802 7.207,-1.58 11.225,-2.333 4.018,-0.754 7.761,-1.91 11.226,-3.466 3.466,-1.559 6.352,-3.768 8.664,-6.631 2.31,-2.863 3.466,-6.806 3.466,-11.827 0,-7.535 -2.787,-13.437 -8.363,-17.706 -5.575,-4.27 -13.838,-6.403 -24.787,-6.403 -11.251,0 -19.789,2.26 -25.615,6.78 -5.827,4.521 -8.739,10.598 -8.739,18.232 H 17.63 c 0.904,-6.629 6.027,-9.944 15.369,-9.944 8.939,0 13.411,2.713 13.411,8.136 0,2.712 -1.157,4.721 -3.467,6.028 -2.311,1.303 -5.173,2.335 -8.588,3.088 -3.416,0.753 -7.133,1.482 -11.15,2.186 -4.018,0.7 -7.737,1.856 -11.15,3.465 -3.416,1.605 -6.28,3.891 -8.588,6.855 C 1.153,-9.469 0,-5.325 0,0" /></g><g
           transform="translate(1230.3398,518.0742)"
           id="g46"><path
             id="path48"
             style="fill:#e20613;fill-opacity:1;fill-rule:nonzero;stroke:none"
             d="m 0,0 c 0,-2.915 0.5,-5.703 1.507,-8.363 1.002,-2.662 2.433,-4.997 4.293,-7.006 1.857,-2.012 4.117,-3.615 6.781,-4.822 2.66,-1.205 5.599,-1.807 8.814,-1.807 3.213,0 6.126,0.602 8.74,1.807 2.61,1.207 4.844,2.81 6.704,4.822 1.858,2.009 3.29,4.344 4.295,7.006 1.003,2.66 1.507,5.448 1.507,8.363 0,2.912 -0.504,5.726 -1.507,8.438 -1.005,2.713 -2.437,5.07 -4.295,7.082 -1.86,2.008 -4.094,3.615 -6.704,4.822 -2.614,1.205 -5.527,1.806 -8.74,1.806 -3.215,0 -6.154,-0.601 -8.814,-1.806 C 9.917,19.135 7.657,17.528 5.8,15.52 3.94,13.508 2.509,11.151 1.507,8.438 0.5,5.726 0,2.912 0,0 m -19.89,0 c 0,5.824 1.055,11.225 3.163,16.198 2.111,4.972 4.997,9.291 8.664,12.958 3.666,3.667 8.009,6.529 13.035,8.589 5.022,2.058 10.446,3.088 16.272,3.088 5.824,0 11.25,-1.03 16.274,-3.088 5.021,-2.06 9.392,-4.922 13.109,-8.589 3.715,-3.667 6.63,-7.986 8.738,-12.958 C 61.476,11.225 62.53,5.824 62.53,0 c 0,-5.727 -1.054,-11.074 -3.165,-16.048 -2.108,-4.972 -5.023,-9.292 -8.738,-12.957 -3.717,-3.669 -8.088,-6.53 -13.109,-8.589 -5.024,-2.058 -10.45,-3.089 -16.274,-3.089 -5.826,0 -11.25,1.031 -16.272,3.089 -5.026,2.059 -9.394,4.92 -13.11,8.589 -3.716,3.665 -6.606,7.985 -8.664,12.957 -2.059,4.974 -3.088,10.321 -3.088,16.048" /></g><g
           transform="translate(1350.7295,589.3447)"
           id="g50"><path
             id="path52"
             style="fill:#e20613;fill-opacity:1;fill-rule:nonzero;stroke:none"
             d="m 0,0 v -16.876 h -14.917 c -7.032,0 -10.548,-4.27 -10.548,-12.808 v -2.26 h 22.753 v -15.821 h -22.753 v -62.832 H -44.3 v 62.832 h -12.957 v 15.821 H -44.3 v 2.863 c 0,9.541 2.209,16.775 6.631,21.699 C -33.25,-2.462 -26.62,0 -17.779,0 Z" /></g><g
           transform="translate(1380.2607,580.6055)"
           id="g54"><path
             id="path56"
             style="fill:#e20613;fill-opacity:1;fill-rule:nonzero;stroke:none"
             d="M 0,0 V -23.205 H 19.588 V -39.026 H 0 v -35.559 c 0,-4.422 1.003,-7.384 3.014,-8.891 2.007,-1.506 4.77,-2.26 8.287,-2.26 1.304,0 2.637,0.077 3.993,0.226 1.356,0.151 2.787,0.324 4.294,0.528 v -17.329 c -4.62,-0.603 -8.889,-0.903 -12.808,-0.903 -4.018,0 -7.634,0.403 -10.847,1.205 -3.217,0.802 -5.929,2.186 -8.137,4.144 -2.211,1.959 -3.894,4.52 -5.048,7.685 -1.156,3.164 -1.733,7.054 -1.733,11.678 v 39.476 h -13.411 v 15.821 h 13.411 V 0 Z" /></g><g
           transform="translate(607.6997,522.7803)"
           id="g58"><path
             id="path60"
             style="fill:#e20613;fill-opacity:1;fill-rule:nonzero;stroke:none"
             d="m 0,0 c -1.002,-9.509 -9.523,-17.22 -19.033,-17.22 -9.51,0 -16.408,7.711 -15.406,17.22 1.002,9.511 9.523,17.22 19.033,17.22 C -5.895,17.22 1.002,9.511 0,0" /></g><g
           transform="translate(646.6641,565.8296)"
           id="g62"><path
             id="path64"
             style="fill:#e20613;fill-opacity:1;fill-rule:nonzero;stroke:none"
             d="M 0,0 H 8.61 L 7.705,-8.61 35.344,8.61 11.325,25.83 10.42,17.22 c 0,0 -5.878,0.048 -8.462,0.048 -23.937,0 -35.757,-7.904 -31.22,-27.887 2.338,-10.299 4.827,-16.236 9.372,-32.429 6.013,-21.43 -12.193,-43.05 -40.818,-43.05 -35.452,0 -49.669,36.445 -19.584,106.708 6.167,14.402 14.196,30.226 24.284,47.448 -2.016,0.535 -4.159,0.821 -6.4,0.821 -9.561,0 -18.456,-5.196 -23.736,-12.918 -0.601,-0.991 -1.193,-1.977 -1.777,-2.959 -22.517,-37.836 -32.415,-68.327 -36.237,-87.441 -9.318,-46.607 8.691,-85.896 59.83,-86.099 44.573,-0.176 90.553,43.274 69.318,86.099 C -5.24,-13.807 -12.186,0 0,0" /></g></g></g></g></svg>
