<svg id="Layer_1" data-name="Layer 1" xmlns="http://www.w3.org/2000/svg" xmlns:xlink="http://www.w3.org/1999/xlink" viewBox="0 0 500 500"><defs><style>.cls-1,.cls-2{fill:#e21d38;}.cls-1,.cls-5,.cls-7{stroke:#e21d38;stroke-miterlimit:10;}.cls-3{clip-path:url(#clip-path);}.cls-4{fill:#fff;}.cls-5,.cls-7{fill:none;}.cls-6{fill:#0a4461;}.cls-7{stroke-width:2px;}</style><clipPath id="clip-path"><path class="cls-1" d="M137.3,250.42a113.5,113.5,0,1,1,113.5,113.5A113.62,113.62,0,0,1,137.3,250.42Z"/></clipPath></defs><path class="cls-2" d="M137.3,250.42a113.5,113.5,0,1,1,113.5,113.5A113.62,113.62,0,0,1,137.3,250.42Z"/><g class="cls-3"><path class="cls-4" d="M361.46,206.23a3.5,3.5,0,0,0-3.93,2.13L341.1,249.09l-14.27-15.22a3.51,3.51,0,0,0-5.91,1.36L301,299.56l-8-10a3.5,3.5,0,0,0-5.26-.23l-10.27,10.71L261.83,245.7a3.51,3.51,0,0,0-6.68-.18L237.5,296.15,227.12,289a3.51,3.51,0,0,0-5,1.05l-16.72,27.16-24.61-5.33a3.52,3.52,0,0,0-4.11,2.43l-18,60.75a3.5,3.5,0,0,0,3.36,4.5H359.87a3.51,3.51,0,0,0,3.5-3.49l.92-166.4A3.51,3.51,0,0,0,361.46,206.23Z"/><path class="cls-4" d="M361.46,206.23a3.5,3.5,0,0,0-3.93,2.13l-10.29,25.5-1,145.72h13.59a3.51,3.51,0,0,0,3.5-3.49l.92-166.4A3.51,3.51,0,0,0,361.46,206.23Z"/><path class="cls-4" d="M365,179.8a3.51,3.51,0,0,0-3.49-3.48l-13.14-.08h0a3.51,3.51,0,0,0,0,7l4.7,0L333.34,215l-13.72-12.14a3.5,3.5,0,0,0-5.65,1.52l-16.91,51.18-2.56-3.85a3.5,3.5,0,0,0-5.59-.34l-5.42,6.36L260.75,194a3.51,3.51,0,0,0-6.56-.14L227.09,261l-8.76-4.38a3.51,3.51,0,0,0-4.6,1.37l-17.47,30-25.65-4.54a3.51,3.51,0,0,0-4,2.5L154.47,329a3.51,3.51,0,1,0,6.75,1.9l11.3-40.07,24.93,4.42a3.52,3.52,0,0,0,3.64-1.69l17-29.25,9.21,4.61a3.51,3.51,0,0,0,4.82-1.83l25.07-62,21.68,60.74a3.52,3.52,0,0,0,6,1.1l6.33-7.44,4,6a3.51,3.51,0,0,0,6.26-.83l17.5-53L331.81,223a3.51,3.51,0,0,0,5.3-.78l20.94-33.71,0,4.49a3.5,3.5,0,0,0,3.5,3.48h0a3.5,3.5,0,0,0,3.48-3.52Z"/></g><path class="cls-5" d="M137.3,250.42a113.5,113.5,0,1,1,113.5,113.5A113.62,113.62,0,0,1,137.3,250.42Z"/><circle class="cls-2" cx="88.57" cy="427.01" r="25.82"/><circle class="cls-2" cx="411.01" cy="72.43" r="25.82"/><path class="cls-6" d="M89.1,385.25a40.48,40.48,0,0,0-19.57,5A229.32,229.32,0,0,1,21.17,249.54C21.17,123.35,123.83,20.69,250,20.69a230.62,230.62,0,0,1,45.57,4.54,9.7,9.7,0,1,0,3.84-19A249.63,249.63,0,0,0,250,1.3,248.24,248.24,0,0,0,55.19,403.39,40.74,40.74,0,1,0,89.1,385.25Zm15.08,55.82A21.34,21.34,0,1,1,110.43,426,21.2,21.2,0,0,1,104.18,441.07Z"/><path class="cls-6" d="M444.83,95.69a40.63,40.63,0,1,0-14.33,13.15,229.28,229.28,0,0,1,48.37,140.7C478.87,375.73,376.21,478.4,250,478.4a230.09,230.09,0,0,1-45.14-4.46,9.7,9.7,0,1,0-3.81,19,250.31,250.31,0,0,0,49,4.83A248.24,248.24,0,0,0,444.83,95.69Zm-49-7.5a21.33,21.33,0,1,1,15.08,6.25A21.18,21.18,0,0,1,395.86,88.19Z"/><path class="cls-6" d="M210,416.33a9.7,9.7,0,0,0,9.7,9.7h60.63a9.7,9.7,0,0,0,9.7-9.7v-18.8a151.6,151.6,0,0,0,36.39-15.08l13.28,13.27a9.69,9.69,0,0,0,13.71,0l42.86-42.89a9.71,9.71,0,0,0,0-13.71L383,325.86a152,152,0,0,0,15.09-36.39h18.72a9.7,9.7,0,0,0,9.7-9.7V219.14a9.7,9.7,0,0,0-9.7-9.7H398.09A151.77,151.77,0,0,0,383,173.05l13.19-13.19a9.69,9.69,0,0,0,0-13.72L353.3,103.29a9.69,9.69,0,0,0-13.71,0l-13.17,13.17A151.6,151.6,0,0,0,290,101.38V82.75a9.69,9.69,0,0,0-9.7-9.69H219.7a9.7,9.7,0,0,0-9.7,9.69v18.63a151.94,151.94,0,0,0-36.39,15.08l-13.17-13.17a9.7,9.7,0,0,0-13.71,0l-42.89,42.86a9.69,9.69,0,0,0,0,13.71L117,173.05a151.77,151.77,0,0,0-15.08,36.39H83.25a9.69,9.69,0,0,0-9.7,9.69l0,60.64a9.68,9.68,0,0,0,9.69,9.7h18.73A151.6,151.6,0,0,0,117,325.86l-13.25,13.26a9.69,9.69,0,0,0,0,13.71l42.85,42.89a9.7,9.7,0,0,0,6.86,2.84h0a9.7,9.7,0,0,0,6.86-2.84l13.27-13.27A151.94,151.94,0,0,0,210,397.53Zm-32.59-54.27a9.7,9.7,0,0,0-12.12,1.28l-11.81,11.81L124.33,346l11.8-11.8a9.7,9.7,0,0,0,1.29-12.12,132.64,132.64,0,0,1-18.37-44.33,9.71,9.71,0,0,0-9.48-7.66H92.91l0-41.23h16.63a9.7,9.7,0,0,0,9.48-7.66,132.73,132.73,0,0,1,18.37-44.33,9.7,9.7,0,0,0-1.29-12.12L124.41,153l29.17-29.15,11.71,11.71a9.7,9.7,0,0,0,12.12,1.29,132.85,132.85,0,0,1,44.33-18.37A9.71,9.71,0,0,0,229.4,109V92.45h41.24V109a9.69,9.69,0,0,0,7.65,9.48,132.85,132.85,0,0,1,44.33,18.37,9.7,9.7,0,0,0,12.12-1.29l11.71-11.71L375.62,153,363.9,164.73a9.7,9.7,0,0,0-1.29,12.12A132.73,132.73,0,0,1,381,221.18a9.7,9.7,0,0,0,9.48,7.66h16.67v41.23H390.46a9.71,9.71,0,0,0-9.48,7.66,132.43,132.43,0,0,1-18.37,44.33,9.7,9.7,0,0,0,1.29,12.12L375.7,346l-29.15,29.17-11.81-11.81a9.7,9.7,0,0,0-12.12-1.28,132.71,132.71,0,0,1-44.33,18.36,9.7,9.7,0,0,0-7.65,9.49v16.73H229.4V389.91a9.72,9.72,0,0,0-7.66-9.49A132.71,132.71,0,0,1,177.41,362.06Z"/><path class="cls-2" d="M339.31,38a9.7,9.7,0,1,0-6.86-2.84A9.72,9.72,0,0,0,339.31,38Z"/><path class="cls-2" d="M161.15,461.29a9.7,9.7,0,1,0,6.86,2.84A9.77,9.77,0,0,0,161.15,461.29Z"/><circle class="cls-7" cx="250.42" cy="249.55" r="113.5"/></svg>