<svg xmlns="http://www.w3.org/2000/svg" width="2660" height="1160"><defs><g id="b"><path fill="#fff" d="M0 0h2660v1160H0z"/><clipPath id="a"><path d="M0 0h2660v1160H0z"/></clipPath><g clip-path="url(#a)"><path fill="none" stroke="#000" stroke-width="1.67" stroke-miterlimit="10" d="M66.06 29.22H15.84v1101.56h50.22"/></g><g clip-path="url(#a)"><path fill="none" stroke="#000" stroke-width="1.67" stroke-miterlimit="10" d="M66.06 29.22h2578.1v1101.56H66.06"/></g><g clip-path="url(#a)"><path fill="none" stroke="#000" stroke-width="1.67" stroke-miterlimit="10" d="M66.06 29.22v1101.56"/></g><g clip-path="url(#a)"><text transform="rotate(-90 40.948 580) scale(1.67409)" font-size="11" font-family="'DejaVu Sans', -apple-system, BlinkMacSystemFont, 'Segoe UI', Roboto, Helvetica, Arial, sans-serif, 'Apple Color Emoji', 'Segoe UI Emoji', 'Segoe UI Symbol'" x="-25.5" y="349">
						Hardware Retailer
				</text></g><g clip-path="url(#a)"><path fill="none" stroke="#000" stroke-width="1.67" stroke-miterlimit="10" d="M116.28 29.22H66.06v247.77h50.22"/></g><g clip-path="url(#a)"><path fill="none" stroke="#000" stroke-width="1.67" stroke-miterlimit="10" d="M116.28 29.22h2527.88v247.77H116.28"/></g><g clip-path="url(#a)"><text transform="rotate(-90 91.171 153.107) scale(1.67409)" font-size="11" font-family="'DejaVu Sans', -apple-system, BlinkMacSystemFont, 'Segoe UI', Roboto, Helvetica, Arial, sans-serif, 'Apple Color Emoji', 'Segoe UI Emoji', 'Segoe UI Symbol'" x="4.344" y="94">
						Logistics Manager
				</text></g><g clip-path="url(#a)"><path fill="#fff" d="M1536.41 96.69h105.47q.41 0 .82.02t.82.06q.41.04.82.101.4.06.81.14.4.08.8.18.4.1.79.22t.78.257q.39.139.77.296.38.157.75.333.37.176.73.37.36.193.72.405.35.21.69.44.34.228.67.472.33.245.65.506.32.26.62.536.31.276.6.567.29.291.56.595.28.305.54.622.26.318.51.648.24.33.47.672.23.341.44.694.21.352.4.715.2.362.37.734.18.371.34.751.15.38.29.766.14.387.26.781.12.393.22.792.1.398.18.801.08.403.14.81.06.406.1.815.04.409.06.82.02.41.02.821v80.36q0 .411-.02.821-.02.411-.06.82-.04.409-.1.815-.06.407-.14.81-.08.403-.18.801-.1.399-.22.792-.12.394-.26.781-.14.386-.29.766-.16.38-.34.751-.17.372-.37.734-.19.363-.4.715-.21.353-.44.694-.23.342-.47.672-.25.33-.51.648-.26.317-.54.622-.27.304-.56.595-.29.291-.6.566-.3.276-.62.537t-.65.506q-.33.244-.67.473-.34.228-.69.439-.36.212-.72.405-.36.194-.73.37-.37.175-.75.333-.38.157-.77.295-.39.139-.78.258t-.79.219q-.4.1-.8.18-.41.081-.81.141-.41.06-.82.1-.41.041-.82.061-.41.02-.82.02h-105.47q-.41 0-.82-.02t-.82-.061q-.41-.04-.82-.1-.4-.061-.81-.141-.4-.08-.8-.18-.4-.1-.79-.219t-.78-.258q-.39-.138-.77-.295-.38-.158-.75-.333-.37-.176-.73-.37-.36-.193-.72-.405-.35-.211-.69-.439-.34-.229-.67-.473-.33-.245-.65-.506t-.62-.537q-.31-.275-.6-.566-.29-.291-.56-.595-.28-.305-.54-.622-.26-.318-.51-.648-.24-.33-.47-.672-.23-.341-.44-.694-.21-.352-.4-.715-.2-.362-.37-.734-.18-.371-.34-.751-.15-.38-.29-.766-.14-.387-.26-.781-.12-.393-.22-.792-.1-.398-.18-.801-.08-.403-.14-.81-.06-.406-.1-.815-.04-.409-.06-.82-.02-.41-.02-.821v-80.36q0-.411.02-.821.02-.411.06-.82.04-.409.1-.815.06-.407.14-.81.08-.403.18-.802.1-.398.22-.791.12-.394.26-.781.14-.386.29-.766.16-.38.34-.751.17-.372.37-.734.19-.363.4-.715.21-.353.44-.694.23-.342.47-.672.25-.33.51-.648.26-.317.54-.622.27-.304.56-.595.29-.291.6-.567.3-.276.62-.536t.65-.506q.33-.244.67-.473.34-.228.69-.44.36-.21.72-.404.36-.194.73-.37.37-.175.75-.333.38-.157.77-.296.39-.138.78-.257.39-.12.79-.22t.8-.18q.41-.08.81-.14.41-.06.82-.1.41-.04.82-.06.41-.021.82-.021Z"/></g><g clip-path="url(#a)"><path fill="none" stroke="#000" stroke-width="3.35" d="M1536.41 96.69h105.47q.41 0 .82.02t.82.06q.41.04.82.101.4.06.81.14.4.08.8.18.4.1.79.22t.78.257q.39.139.77.296.38.157.75.333.37.176.73.37.36.193.72.405.35.21.69.44.34.228.67.472.33.245.65.506.32.26.62.536.31.276.6.567.29.291.56.595.28.305.54.622.26.318.51.648.24.33.47.672.23.341.44.694.21.352.4.715.2.362.37.734.18.371.34.751.15.38.29.766.14.387.26.781.12.393.22.792.1.398.18.801.08.403.14.81.06.406.1.815.04.409.06.82.02.41.02.821v80.36q0 .411-.02.821-.02.411-.06.82-.04.409-.1.815-.06.407-.14.81-.08.403-.18.801-.1.399-.22.792-.12.394-.26.781-.14.386-.29.766-.16.38-.34.751-.17.372-.37.734-.19.363-.4.715-.21.353-.44.694-.23.342-.47.672-.25.33-.51.648-.26.317-.54.622-.27.304-.56.595-.29.291-.6.566-.3.276-.62.537t-.65.506q-.33.244-.67.473-.34.228-.69.439-.36.212-.72.405-.36.194-.73.37-.37.175-.75.333-.38.157-.77.295-.39.139-.78.258t-.79.219q-.4.1-.8.18-.41.081-.81.141-.41.06-.82.1-.41.041-.82.061-.41.02-.82.02h-105.47q-.41 0-.82-.02t-.82-.061q-.41-.04-.82-.1-.4-.061-.81-.141-.4-.08-.8-.18-.4-.1-.79-.219t-.78-.258q-.39-.138-.77-.295-.38-.158-.75-.333-.37-.176-.73-.37-.36-.193-.72-.405-.35-.211-.69-.439-.34-.229-.67-.473-.33-.245-.65-.506t-.62-.537q-.31-.275-.6-.566-.29-.291-.56-.595-.28-.305-.54-.622-.26-.318-.51-.648-.24-.33-.47-.672-.23-.341-.44-.694-.21-.352-.4-.715-.2-.362-.37-.734-.18-.371-.34-.751-.15-.38-.29-.766-.14-.387-.26-.781-.12-.393-.22-.792-.1-.398-.18-.801-.08-.403-.14-.81-.06-.406-.1-.815-.04-.409-.06-.82-.02-.41-.02-.821v-80.36q0-.411.02-.821.02-.411.06-.82.04-.409.1-.815.06-.407.14-.81.08-.403.18-.802.1-.398.22-.791.12-.394.26-.781.14-.386.29-.766.16-.38.34-.751.17-.372.37-.734.19-.363.4-.715.21-.353.44-.694.23-.342.47-.672.25-.33.51-.648.26-.317.54-.622.27-.304.56-.595.29-.291.6-.567.3-.276.62-.536t.65-.506q.33-.244.67-.473.34-.228.69-.44.36-.21.72-.404.36-.194.73-.37.37-.175.75-.333.38-.157.77-.296.39-.138.78-.257.39-.12.79-.22t.8-.18q.41-.08.81-.14.41-.06.82-.1.41-.04.82-.06.41-.021.82-.021Z"/></g><g clip-path="url(#a)"><text transform="scale(1.67409)" font-size="11" font-family="'DejaVu Sans', -apple-system, BlinkMacSystemFont, 'Segoe UI', Roboto, Helvetica, Arial, sans-serif, 'Apple Color Emoji', 'Segoe UI Emoji', 'Segoe UI Symbol'" x="909.469" y="88">
						Take out extra
				</text></g><g clip-path="url(#a)"><text transform="scale(1.67409)" font-size="11" font-family="'DejaVu Sans', -apple-system, BlinkMacSystemFont, 'Segoe UI', Roboto, Helvetica, Arial, sans-serif, 'Apple Color Emoji', 'Segoe UI Emoji', 'Segoe UI Symbol'" x="921.609" y="101">
						insurance
				</text></g><g clip-path="url(#a)"><path fill="none" stroke="#000" stroke-width="1.67" stroke-miterlimit="10" d="M116.28 276.99H66.06v502.23h50.22"/></g><g clip-path="url(#a)"><path fill="none" stroke="#000" stroke-width="1.67" stroke-miterlimit="10" d="M116.28 276.99h2527.88v502.23H116.28"/></g><g clip-path="url(#a)"><text transform="rotate(-90 91.171 528.103) scale(1.67409)" font-size="11" font-family="'DejaVu Sans', -apple-system, BlinkMacSystemFont, 'Segoe UI', Roboto, Helvetica, Arial, sans-serif, 'Apple Color Emoji', 'Segoe UI Emoji', 'Segoe UI Symbol'" x="39.797" y="318">
						Clerk
				</text></g><g clip-path="url(#a)"><circle fill="#fff" transform="translate(.5 .5)" cx="233.47" cy="628.55" r="25.111"/></g><g clip-path="url(#a)"><circle fill="none" stroke="#000" stroke-width="3.35" transform="translate(.5 .5)" cx="233.47" cy="628.55" r="25.111"/></g><g clip-path="url(#a)"><text transform="scale(1.67409)" font-size="11" font-family="'DejaVu Sans', -apple-system, BlinkMacSystemFont, 'Segoe UI', Roboto, Helvetica, Arial, sans-serif, 'Apple Color Emoji', 'Segoe UI Emoji', 'Segoe UI Symbol'" x="114.875" y="402">
						Goods to
				</text></g><g clip-path="url(#a)"><text transform="scale(1.67409)" font-size="11" font-family="'DejaVu Sans', -apple-system, BlinkMacSystemFont, 'Segoe UI', Roboto, Helvetica, Arial, sans-serif, 'Apple Color Emoji', 'Segoe UI Emoji', 'Segoe UI Symbol'" x="128.125" y="415">
						ship
				</text></g><g clip-path="url(#a)"><path fill="#fff" d="m384.64 593.89 35.15 35.16-35.15 35.15-35.16-35.15 35.16-35.16Z"/></g><g clip-path="url(#a)"><path fill="none" stroke="#000" stroke-width="3.35" stroke-miterlimit="10" d="m384.64 593.89 35.15 35.16-35.15 35.15-35.16-35.15 35.16-35.16Z"/></g><g clip-path="url(#a)"><path d="M380.42 611.47h8.44v13.36h13.36v8.44h-13.36v13.36h-8.44v-13.36h-13.36v-8.44h13.36v-13.36Z"/></g><g clip-path="url(#a)"><path fill="none" stroke="#000" stroke-miterlimit="10" d="M380.42 611.47h8.44v13.36h13.36v8.44h-13.36v13.36h-8.44v-13.36h-13.36v-8.44h13.36v-13.36Z"/></g><g clip-path="url(#a)"><path fill="#fff" d="M548.7 572.13h105.47q.411 0 .821.02.411.02.82.061.409.04.815.1.407.06.81.141.403.08.801.18.399.1.792.219.394.119.781.258.386.138.766.295.38.157.751.333.372.176.734.37.363.193.715.405.353.211.694.439.342.228.672.473.33.245.648.506.317.26.622.536.304.276.595.567.291.291.566.595.277.304.537.622.261.318.506.648.244.33.473.672.228.341.439.694.212.352.405.715.194.362.37.734.175.371.333.751.157.38.295.766.139.387.258.781.12.393.219.791.1.399.18.802.081.403.141.81.06.406.1.815.041.409.061.82.02.41.02.821v80.36q0 .411-.02.821-.02.411-.061.82-.04.409-.1.815-.06.407-.141.81-.08.403-.18.801-.099.399-.219.792-.119.394-.258.78-.138.387-.295.767-.158.38-.333.751-.176.372-.37.734-.193.363-.405.715-.211.352-.439.694-.229.342-.473.672-.245.33-.506.648-.26.317-.537.622-.275.304-.566.595-.291.29-.595.566-.305.276-.622.537-.318.261-.648.506-.33.244-.672.473-.341.228-.694.439-.352.211-.715.405-.362.194-.734.37-.371.175-.751.333-.38.157-.766.295-.387.139-.781.258-.393.119-.792.219-.398.1-.801.18-.403.08-.81.141-.406.06-.815.1-.409.041-.82.061-.41.02-.821.02H548.7q-.411 0-.821-.02-.411-.02-.82-.061-.409-.04-.815-.1-.407-.061-.81-.141-.403-.08-.801-.18-.399-.1-.792-.219-.394-.119-.781-.258-.386-.138-.766-.295-.38-.158-.751-.333-.372-.176-.734-.37-.363-.193-.715-.405-.353-.211-.694-.439-.342-.229-.672-.473-.33-.245-.648-.506-.317-.261-.622-.537-.304-.276-.595-.566-.291-.291-.566-.595-.276-.305-.537-.622-.261-.318-.506-.648-.244-.33-.473-.672-.228-.342-.439-.694-.212-.352-.405-.715-.194-.362-.37-.734-.176-.371-.333-.751-.157-.38-.295-.767-.139-.386-.258-.78-.119-.393-.219-.792-.1-.398-.18-.801-.081-.403-.141-.81-.06-.406-.1-.815-.041-.409-.061-.82-.02-.41-.02-.821v-80.36q0-.411.02-.821.02-.411.061-.82.04-.409.1-.815.06-.407.141-.81.08-.403.18-.802.1-.398.219-.791.119-.394.258-.781.138-.386.295-.766.157-.38.333-.751.176-.372.37-.734.193-.363.405-.715.211-.353.439-.694.229-.342.473-.672.245-.33.506-.648t.537-.622q.275-.304.566-.595.291-.291.595-.567.305-.276.622-.536.318-.261.648-.506t.672-.473q.341-.228.694-.439.352-.212.715-.405.362-.194.734-.37.371-.176.751-.333.38-.157.766-.295.387-.139.781-.258.393-.119.792-.219.398-.1.801-.18.403-.081.81-.141.406-.06.815-.1.409-.041.82-.061.41-.02.821-.02Z"/></g><g clip-path="url(#a)"><path fill="none" stroke="#000" stroke-width="3.35" d="M548.7 572.13h105.47q.411 0 .821.02.411.02.82.061.409.04.815.1.407.06.81.141.403.08.801.18.399.1.792.219.394.119.781.258.386.138.766.295.38.157.751.333.372.176.734.37.363.193.715.405.353.211.694.439.342.228.672.473.33.245.648.506.317.26.622.536.304.276.595.567.291.291.566.595.277.304.537.622.261.318.506.648.244.33.473.672.228.341.439.694.212.352.405.715.194.362.37.734.175.371.333.751.157.38.295.766.139.387.258.781.12.393.219.791.1.399.18.802.081.403.141.81.06.406.1.815.041.409.061.82.02.41.02.821v80.36q0 .411-.02.821-.02.411-.061.82-.04.409-.1.815-.06.407-.141.81-.08.403-.18.801-.099.399-.219.792-.119.394-.258.78-.138.387-.295.767-.158.38-.333.751-.176.372-.37.734-.193.363-.405.715-.211.352-.439.694-.229.342-.473.672-.245.33-.506.648-.26.317-.537.622-.275.304-.566.595-.291.29-.595.566-.305.276-.622.537-.318.261-.648.506-.33.244-.672.473-.341.228-.694.439-.352.211-.715.405-.362.194-.734.37-.371.175-.751.333-.38.157-.766.295-.387.139-.781.258-.393.119-.792.219-.398.1-.801.18-.403.08-.81.141-.406.06-.815.1-.409.041-.82.061-.41.02-.821.02H548.7q-.411 0-.821-.02-.411-.02-.82-.061-.409-.04-.815-.1-.407-.061-.81-.141-.403-.08-.801-.18-.399-.1-.792-.219-.394-.119-.781-.258-.386-.138-.766-.295-.38-.158-.751-.333-.372-.176-.734-.37-.363-.193-.715-.405-.353-.211-.694-.439-.342-.229-.672-.473-.33-.245-.648-.506-.317-.261-.622-.537-.304-.276-.595-.566-.291-.291-.566-.595-.276-.305-.537-.622-.261-.318-.506-.648-.244-.33-.473-.672-.228-.342-.439-.694-.212-.352-.405-.715-.194-.362-.37-.734-.176-.371-.333-.751-.157-.38-.295-.767-.139-.386-.258-.78-.119-.393-.219-.792-.1-.398-.18-.801-.081-.403-.141-.81-.06-.406-.1-.815-.041-.409-.061-.82-.02-.41-.02-.821v-80.36q0-.411.02-.821.02-.411.061-.82.04-.409.1-.815.06-.407.141-.81.08-.403.18-.802.1-.398.219-.791.119-.394.258-.781.138-.386.295-.766.157-.38.333-.751.176-.372.37-.734.193-.363.405-.715.211-.353.439-.694.229-.342.473-.672.245-.33.506-.648t.537-.622q.275-.304.566-.595.291-.291.595-.567.305-.276.622-.536.318-.261.648-.506t.672-.473q.341-.228.694-.439.352-.212.715-.405.362-.194.734-.37.371-.176.751-.333.38-.157.766-.295.387-.139.781-.258.393-.119.792-.219.398-.1.801-.18.403-.081.81-.141.406-.06.815-.1.409-.041.82-.061.41-.02.821-.02Z"/></g><g clip-path="url(#a)"><text transform="scale(1.67409)" font-size="11" font-family="'DejaVu Sans', -apple-system, BlinkMacSystemFont, 'Segoe UI', Roboto, Helvetica, Arial, sans-serif, 'Apple Color Emoji', 'Segoe UI Emoji', 'Segoe UI Symbol'" x="334.234" y="359">
						Decide if
				</text></g><g clip-path="url(#a)"><text transform="scale(1.67409)" font-size="11" font-family="'DejaVu Sans', -apple-system, BlinkMacSystemFont, 'Segoe UI', Roboto, Helvetica, Arial, sans-serif, 'Apple Color Emoji', 'Segoe UI Emoji', 'Segoe UI Symbol'" x="318.219" y="372">
						normal post or
				</text></g><g clip-path="url(#a)"><text transform="scale(1.67409)" font-size="11" font-family="'DejaVu Sans', -apple-system, BlinkMacSystemFont, 'Segoe UI', Roboto, Helvetica, Arial, sans-serif, 'Apple Color Emoji', 'Segoe UI Emoji', 'Segoe UI Symbol'" x="339.297" y="385">
						special
				</text></g><g clip-path="url(#a)"><text transform="scale(1.67409)" font-size="11" font-family="'DejaVu Sans', -apple-system, BlinkMacSystemFont, 'Segoe UI', Roboto, Helvetica, Arial, sans-serif, 'Apple Color Emoji', 'Segoe UI Emoji', 'Segoe UI Symbol'" x="332.734" y="398">
						shipment
				</text></g><g clip-path="url(#a)"><path fill="#fff" d="m819.9 593.89 35.16 35.16-35.16 35.15-35.15-35.15 35.15-35.16Z"/></g><g clip-path="url(#a)"><path fill="none" stroke="#000" stroke-width="3.35" stroke-miterlimit="10" d="m819.9 593.89 35.16 35.16-35.16 35.15-35.15-35.15 35.15-35.16Z"/></g><g clip-path="url(#a)"><path d="m829.347 613.636 5.968 5.968-9.447 9.447 9.447 9.447-5.968 5.968-9.447-9.447-9.447 9.447-5.968-5.968 9.447-9.447-9.447-9.447 5.968-5.968 9.447 9.447 9.447-9.447Z"/></g><g clip-path="url(#a)"><path fill="none" stroke="#000" stroke-miterlimit="10" d="m829.347 613.636 5.968 5.968-9.447 9.447 9.447 9.447-5.968 5.968-9.447-9.447-9.447 9.447-5.968-5.968 9.447-9.447-9.447-9.447 5.968-5.968 9.447 9.447 9.447-9.447Z"/></g><g clip-path="url(#a)"><text transform="scale(1.67409)" font-size="11" font-family="'DejaVu Sans', -apple-system, BlinkMacSystemFont, 'Segoe UI', Roboto, Helvetica, Arial, sans-serif, 'Apple Color Emoji', 'Segoe UI Emoji', 'Segoe UI Symbol'" x="467.953" y="408">
						Mode of
				</text></g><g clip-path="url(#a)"><text transform="scale(1.67409)" font-size="11" font-family="'DejaVu Sans', -apple-system, BlinkMacSystemFont, 'Segoe UI', Roboto, Helvetica, Arial, sans-serif, 'Apple Color Emoji', 'Segoe UI Emoji', 'Segoe UI Symbol'" x="467.906" y="421">
						delivery
				</text></g><g clip-path="url(#a)"><path fill="#fff" d="M1218.33 572.13h105.47q.41 0 .82.02t.82.061q.41.04.82.1.4.06.81.141.4.08.8.18.4.1.79.219t.78.258q.39.138.77.295.38.157.75.333.37.176.73.37.36.193.72.405.35.211.69.439.34.228.67.473.33.245.65.506.32.26.62.536.31.276.6.567.29.291.56.595.28.304.54.622t.51.648q.24.33.47.672.23.341.44.694.21.352.4.715.2.362.37.734.18.371.34.751.15.38.29.766.14.387.26.781.12.393.22.791.1.399.18.802.08.403.14.81.06.406.1.815.04.409.06.82.02.41.02.821v80.36q0 .411-.02.821-.02.411-.06.82-.04.409-.1.815-.06.407-.14.81-.08.403-.18.801-.1.399-.22.792-.12.394-.26.78-.14.387-.29.767-.16.38-.34.751-.17.372-.37.734-.19.363-.4.715-.21.352-.44.694-.23.342-.47.672-.25.33-.51.648-.26.317-.54.622-.27.304-.56.595-.29.29-.6.566-.3.276-.62.537t-.65.506q-.33.244-.67.473-.34.228-.69.439-.36.211-.72.405-.36.194-.73.37-.37.175-.75.333-.38.157-.77.295-.39.139-.78.258t-.79.219q-.4.1-.8.18-.41.08-.81.141-.41.06-.82.1-.41.041-.82.061-.41.02-.82.02h-105.47q-.41 0-.82-.02t-.82-.061q-.41-.04-.82-.1-.4-.061-.81-.141-.4-.08-.8-.18-.4-.1-.79-.219t-.78-.258q-.39-.138-.77-.295-.38-.158-.75-.333-.37-.176-.73-.37-.36-.193-.72-.405-.35-.211-.69-.439-.34-.229-.67-.473-.33-.245-.65-.506t-.62-.537q-.31-.276-.6-.566-.29-.291-.56-.595-.28-.305-.54-.622-.26-.318-.51-.648-.24-.33-.47-.672-.23-.342-.44-.694-.21-.352-.4-.715-.2-.362-.37-.734-.18-.371-.34-.751-.15-.38-.29-.767-.14-.386-.26-.78-.12-.393-.22-.792-.1-.398-.18-.801-.08-.403-.14-.81-.06-.406-.1-.815-.04-.409-.06-.82-.02-.41-.02-.821v-80.36q0-.411.02-.821.02-.411.06-.82.04-.409.1-.815.06-.407.14-.81.08-.403.18-.802.1-.398.22-.791.12-.394.26-.781.14-.386.29-.766.16-.38.34-.751.17-.372.37-.734.19-.363.4-.715.21-.353.44-.694.23-.342.47-.672.25-.33.51-.648t.54-.622q.27-.304.56-.595.29-.291.6-.567.3-.276.62-.536.32-.261.65-.506t.67-.473q.34-.228.69-.439.36-.212.72-.405.36-.194.73-.37t.75-.333q.38-.157.77-.295.39-.139.78-.258t.79-.219q.4-.1.8-.18.41-.081.81-.141.41-.06.82-.1.41-.041.82-.061.41-.02.82-.02Z"/></g><g clip-path="url(#a)"><path fill="none" stroke="#000" stroke-width="3.35" d="M1218.33 572.13h105.47q.41 0 .82.02t.82.061q.41.04.82.1.4.06.81.141.4.08.8.18.4.1.79.219t.78.258q.39.138.77.295.38.157.75.333.37.176.73.37.36.193.72.405.35.211.69.439.34.228.67.473.33.245.65.506.32.26.62.536.31.276.6.567.29.291.56.595.28.304.54.622t.51.648q.24.33.47.672.23.341.44.694.21.352.4.715.2.362.37.734.18.371.34.751.15.38.29.766.14.387.26.781.12.393.22.791.1.399.18.802.08.403.14.81.06.406.1.815.04.409.06.82.02.41.02.821v80.36q0 .411-.02.821-.02.411-.06.82-.04.409-.1.815-.06.407-.14.81-.08.403-.18.801-.1.399-.22.792-.12.394-.26.78-.14.387-.29.767-.16.38-.34.751-.17.372-.37.734-.19.363-.4.715-.21.352-.44.694-.23.342-.47.672-.25.33-.51.648-.26.317-.54.622-.27.304-.56.595-.29.29-.6.566-.3.276-.62.537t-.65.506q-.33.244-.67.473-.34.228-.69.439-.36.211-.72.405-.36.194-.73.37-.37.175-.75.333-.38.157-.77.295-.39.139-.78.258t-.79.219q-.4.1-.8.18-.41.08-.81.141-.41.06-.82.1-.41.041-.82.061-.41.02-.82.02h-105.47q-.41 0-.82-.02t-.82-.061q-.41-.04-.82-.1-.4-.061-.81-.141-.4-.08-.8-.18-.4-.1-.79-.219t-.78-.258q-.39-.138-.77-.295-.38-.158-.75-.333-.37-.176-.73-.37-.36-.193-.72-.405-.35-.211-.69-.439-.34-.229-.67-.473-.33-.245-.65-.506t-.62-.537q-.31-.276-.6-.566-.29-.291-.56-.595-.28-.305-.54-.622-.26-.318-.51-.648-.24-.33-.47-.672-.23-.342-.44-.694-.21-.352-.4-.715-.2-.362-.37-.734-.18-.371-.34-.751-.15-.38-.29-.767-.14-.386-.26-.78-.12-.393-.22-.792-.1-.398-.18-.801-.08-.403-.14-.81-.06-.406-.1-.815-.04-.409-.06-.82-.02-.41-.02-.821v-80.36q0-.411.02-.821.02-.411.06-.82.04-.409.1-.815.06-.407.14-.81.08-.403.18-.802.1-.398.22-.791.12-.394.26-.781.14-.386.29-.766.16-.38.34-.751.17-.372.37-.734.19-.363.4-.715.21-.353.44-.694.23-.342.47-.672.25-.33.51-.648t.54-.622q.27-.304.56-.595.29-.291.6-.567.3-.276.62-.536.32-.261.65-.506t.67-.473q.34-.228.69-.439.36-.212.72-.405.36-.194.73-.37t.75-.333q.38-.157.77-.295.39-.139.78-.258t.79-.219q.4-.1.8-.18.41-.081.81-.141.41-.06.82-.1.41-.041.82-.061.41-.02.82-.02Z"/></g><g clip-path="url(#a)"><text transform="scale(1.67409)" font-size="11" font-family="'DejaVu Sans', -apple-system, BlinkMacSystemFont, 'Segoe UI', Roboto, Helvetica, Arial, sans-serif, 'Apple Color Emoji', 'Segoe UI Emoji', 'Segoe UI Symbol'" x="736.156" y="365">
						Request
				</text></g><g clip-path="url(#a)"><text transform="scale(1.67409)" font-size="11" font-family="'DejaVu Sans', -apple-system, BlinkMacSystemFont, 'Segoe UI', Roboto, Helvetica, Arial, sans-serif, 'Apple Color Emoji', 'Segoe UI Emoji', 'Segoe UI Symbol'" x="725.203" y="378">
						quotes from
				</text></g><g clip-path="url(#a)"><text transform="scale(1.67409)" font-size="11" font-family="'DejaVu Sans', -apple-system, BlinkMacSystemFont, 'Segoe UI', Roboto, Helvetica, Arial, sans-serif, 'Apple Color Emoji', 'Segoe UI Emoji', 'Segoe UI Symbol'" x="737.641" y="392">
						carriers
				</text></g><g clip-path="url(#a)"><path fill="#fff" d="M1569.89 572.13h105.47q.41 0 .82.02t.82.061q.41.04.82.1.4.06.81.141.4.08.8.18.4.1.79.219t.78.258q.39.138.77.295.38.157.75.333.37.176.73.37.36.193.72.405.35.211.69.439.34.228.67.473.33.245.65.506.32.26.62.536.31.276.6.567.29.291.56.595.28.304.54.622t.51.648q.24.33.47.672.23.341.44.694.21.352.4.715.2.362.37.734.18.371.34.751.15.38.29.766.14.387.26.781.12.393.22.791.1.399.18.802.08.403.14.81.06.406.1.815.04.409.06.82.02.41.02.821v80.36q0 .411-.02.821-.02.411-.06.82-.04.409-.1.815-.06.407-.14.81-.08.403-.18.801-.1.399-.22.792-.12.394-.26.78-.14.387-.29.767-.16.38-.34.751-.17.372-.37.734-.19.363-.4.715-.21.352-.44.694-.23.342-.47.672-.25.33-.51.648-.26.317-.54.622-.27.304-.56.595-.29.29-.6.566-.3.276-.62.537t-.65.506q-.33.244-.67.473-.34.228-.69.439-.36.211-.72.405-.36.194-.73.37-.37.175-.75.333-.38.157-.77.295-.39.139-.78.258t-.79.219q-.4.1-.8.18-.41.08-.81.141-.41.06-.82.1-.41.041-.82.061-.41.02-.82.02h-105.47q-.41 0-.82-.02t-.82-.061q-.41-.04-.82-.1-.4-.061-.81-.141-.4-.08-.8-.18-.4-.1-.79-.219t-.78-.258q-.39-.138-.77-.295-.38-.158-.75-.333-.37-.176-.73-.37-.36-.193-.72-.405-.35-.211-.69-.439-.34-.229-.67-.473-.33-.245-.65-.506t-.62-.537q-.31-.276-.6-.566-.29-.291-.56-.595-.28-.305-.54-.622-.26-.318-.51-.648-.24-.33-.47-.672-.23-.342-.44-.694-.21-.352-.4-.715-.2-.362-.37-.734-.18-.371-.34-.751-.15-.38-.29-.767-.14-.386-.26-.78-.12-.393-.22-.792-.1-.398-.18-.801-.08-.403-.14-.81-.06-.406-.1-.815-.04-.409-.06-.82-.02-.41-.02-.821v-80.36q0-.411.02-.821.02-.411.06-.82.04-.409.1-.815.06-.407.14-.81.08-.403.18-.802.1-.398.22-.791.12-.394.26-.781.14-.386.29-.766.16-.38.34-.751.17-.372.37-.734.19-.363.4-.715.21-.353.44-.694.23-.342.47-.672.25-.33.51-.648t.54-.622q.27-.304.56-.595.29-.291.6-.567.3-.276.62-.536.32-.261.65-.506t.67-.473q.34-.228.69-.439.36-.212.72-.405.36-.194.73-.37t.75-.333q.38-.157.77-.295.39-.139.78-.258t.79-.219q.4-.1.8-.18.41-.081.81-.141.41-.06.82-.1.41-.041.82-.061.41-.02.82-.02Z"/></g><g clip-path="url(#a)"><path fill="none" stroke="#000" stroke-width="3.35" d="M1569.89 572.13h105.47q.41 0 .82.02t.82.061q.41.04.82.1.4.06.81.141.4.08.8.18.4.1.79.219t.78.258q.39.138.77.295.38.157.75.333.37.176.73.37.36.193.72.405.35.211.69.439.34.228.67.473.33.245.65.506.32.26.62.536.31.276.6.567.29.291.56.595.28.304.54.622t.51.648q.24.33.47.672.23.341.44.694.21.352.4.715.2.362.37.734.18.371.34.751.15.38.29.766.14.387.26.781.12.393.22.791.1.399.18.802.08.403.14.81.06.406.1.815.04.409.06.82.02.41.02.821v80.36q0 .411-.02.821-.02.411-.06.82-.04.409-.1.815-.06.407-.14.81-.08.403-.18.801-.1.399-.22.792-.12.394-.26.78-.14.387-.29.767-.16.38-.34.751-.17.372-.37.734-.19.363-.4.715-.21.352-.44.694-.23.342-.47.672-.25.33-.51.648-.26.317-.54.622-.27.304-.56.595-.29.29-.6.566-.3.276-.62.537t-.65.506q-.33.244-.67.473-.34.228-.69.439-.36.211-.72.405-.36.194-.73.37-.37.175-.75.333-.38.157-.77.295-.39.139-.78.258t-.79.219q-.4.1-.8.18-.41.08-.81.141-.41.06-.82.1-.41.041-.82.061-.41.02-.82.02h-105.47q-.41 0-.82-.02t-.82-.061q-.41-.04-.82-.1-.4-.061-.81-.141-.4-.08-.8-.18-.4-.1-.79-.219t-.78-.258q-.39-.138-.77-.295-.38-.158-.75-.333-.37-.176-.73-.37-.36-.193-.72-.405-.35-.211-.69-.439-.34-.229-.67-.473-.33-.245-.65-.506t-.62-.537q-.31-.276-.6-.566-.29-.291-.56-.595-.28-.305-.54-.622-.26-.318-.51-.648-.24-.33-.47-.672-.23-.342-.44-.694-.21-.352-.4-.715-.2-.362-.37-.734-.18-.371-.34-.751-.15-.38-.29-.767-.14-.386-.26-.78-.12-.393-.22-.792-.1-.398-.18-.801-.08-.403-.14-.81-.06-.406-.1-.815-.04-.409-.06-.82-.02-.41-.02-.821v-80.36q0-.411.02-.821.02-.411.06-.82.04-.409.1-.815.06-.407.14-.81.08-.403.18-.802.1-.398.22-.791.12-.394.26-.781.14-.386.29-.766.16-.38.34-.751.17-.372.37-.734.19-.363.4-.715.21-.353.44-.694.23-.342.47-.672.25-.33.51-.648t.54-.622q.27-.304.56-.595.29-.291.6-.567.3-.276.62-.536.32-.261.65-.506t.67-.473q.34-.228.69-.439.36-.212.72-.405.36-.194.73-.37t.75-.333q.38-.157.77-.295.39-.139.78-.258t.79-.219q.4-.1.8-.18.41-.081.81-.141.41-.06.82-.1.41-.041.82-.061.41-.02.82-.02Z"/></g><g clip-path="url(#a)"><text transform="scale(1.67409)" font-size="11" font-family="'DejaVu Sans', -apple-system, BlinkMacSystemFont, 'Segoe UI', Roboto, Helvetica, Arial, sans-serif, 'Apple Color Emoji', 'Segoe UI Emoji', 'Segoe UI Symbol'" x="945.375" y="359">
						Assign a
				</text></g><g clip-path="url(#a)"><text transform="scale(1.67409)" font-size="11" font-family="'DejaVu Sans', -apple-system, BlinkMacSystemFont, 'Segoe UI', Roboto, Helvetica, Arial, sans-serif, 'Apple Color Emoji', 'Segoe UI Emoji', 'Segoe UI Symbol'" x="944.469" y="372">
						carrier &amp;
				</text></g><g clip-path="url(#a)"><text transform="scale(1.67409)" font-size="11" font-family="'DejaVu Sans', -apple-system, BlinkMacSystemFont, 'Segoe UI', Roboto, Helvetica, Arial, sans-serif, 'Apple Color Emoji', 'Segoe UI Emoji', 'Segoe UI Symbol'" x="947.094" y="385">
						prepare
				</text></g><g clip-path="url(#a)"><text transform="scale(1.67409)" font-size="11" font-family="'DejaVu Sans', -apple-system, BlinkMacSystemFont, 'Segoe UI', Roboto, Helvetica, Arial, sans-serif, 'Apple Color Emoji', 'Segoe UI Emoji', 'Segoe UI Symbol'" x="939.188" y="398">
						paperwork
				</text></g><g clip-path="url(#a)"><path fill="#fff" d="M1469.45 372.91h105.47q.41 0 .82.02t.82.061q.41.04.82.1.4.06.81.141.4.08.8.18.4.1.79.219t.78.258q.39.138.77.295.38.157.75.333.37.176.73.37.36.193.72.405.35.211.69.439.34.228.67.473.33.245.65.506.32.26.62.536.31.276.6.567.29.291.56.595.28.305.54.622.26.318.51.648.24.33.47.672.23.341.44.694.21.352.4.715.2.362.37.734.18.371.34.751.15.38.29.766.14.387.26.781.12.393.22.791.1.399.18.802.08.403.14.81.06.406.1.815.04.409.06.82.02.41.02.821v80.36q0 .411-.02.821-.02.411-.06.82-.04.409-.1.815-.06.407-.14.81-.08.403-.18.801-.1.399-.22.792-.12.394-.26.78-.14.387-.29.767-.16.38-.34.751-.17.372-.37.734-.19.363-.4.715-.21.352-.44.694-.23.342-.47.672-.25.33-.51.648-.26.317-.54.622-.27.304-.56.595-.29.291-.6.567-.3.276-.62.536-.32.261-.65.506t-.67.473q-.34.228-.69.439-.36.212-.72.405-.36.194-.73.37-.37.175-.75.333-.38.157-.77.295-.39.139-.78.258t-.79.219q-.4.1-.8.18-.41.081-.81.141-.41.06-.82.1-.41.041-.82.061-.41.02-.82.02h-105.47q-.41 0-.82-.02t-.82-.061q-.41-.04-.82-.1-.4-.06-.81-.141-.4-.08-.8-.18-.4-.1-.79-.219t-.78-.258q-.39-.138-.77-.295-.38-.158-.75-.333-.37-.176-.73-.37-.36-.193-.72-.405-.35-.211-.69-.439-.34-.228-.67-.473-.33-.245-.65-.506-.32-.26-.62-.536-.31-.276-.6-.567-.29-.291-.56-.595-.28-.305-.54-.622-.26-.318-.51-.648-.24-.33-.47-.672-.23-.342-.44-.694-.21-.352-.4-.715-.2-.362-.37-.734-.18-.371-.34-.751-.15-.38-.29-.766-.14-.387-.26-.781-.12-.393-.22-.792-.1-.398-.18-.801-.08-.403-.14-.81-.06-.406-.1-.815-.04-.409-.06-.82-.02-.41-.02-.821v-80.36q0-.411.02-.821.02-.411.06-.82.04-.409.1-.815.06-.407.14-.81.08-.403.18-.802.1-.398.22-.791.12-.394.26-.781.14-.386.29-.766.16-.38.34-.751.17-.372.37-.734.19-.363.4-.715.21-.353.44-.694.23-.342.47-.672.25-.33.51-.648.26-.317.54-.622.27-.304.56-.595.29-.291.6-.567.3-.276.62-.536.32-.261.65-.506t.67-.473q.34-.228.69-.439.36-.212.72-.405.36-.194.73-.37t.75-.333q.38-.157.77-.295.39-.139.78-.258t.79-.219q.4-.1.8-.18.41-.081.81-.141.41-.06.82-.1.41-.041.82-.061.41-.02.82-.02Z"/></g><g clip-path="url(#a)"><path fill="none" stroke="#000" stroke-width="3.35" d="M1469.45 372.91h105.47q.41 0 .82.02t.82.061q.41.04.82.1.4.06.81.141.4.08.8.18.4.1.79.219t.78.258q.39.138.77.295.38.157.75.333.37.176.73.37.36.193.72.405.35.211.69.439.34.228.67.473.33.245.65.506.32.26.62.536.31.276.6.567.29.291.56.595.28.305.54.622.26.318.51.648.24.33.47.672.23.341.44.694.21.352.4.715.2.362.37.734.18.371.34.751.15.38.29.766.14.387.26.781.12.393.22.791.1.399.18.802.08.403.14.81.06.406.1.815.04.409.06.82.02.41.02.821v80.36q0 .411-.02.821-.02.411-.06.82-.04.409-.1.815-.06.407-.14.81-.08.403-.18.801-.1.399-.22.792-.12.394-.26.78-.14.387-.29.767-.16.38-.34.751-.17.372-.37.734-.19.363-.4.715-.21.352-.44.694-.23.342-.47.672-.25.33-.51.648-.26.317-.54.622-.27.304-.56.595-.29.291-.6.567-.3.276-.62.536-.32.261-.65.506t-.67.473q-.34.228-.69.439-.36.212-.72.405-.36.194-.73.37-.37.175-.75.333-.38.157-.77.295-.39.139-.78.258t-.79.219q-.4.1-.8.18-.41.081-.81.141-.41.06-.82.1-.41.041-.82.061-.41.02-.82.02h-105.47q-.41 0-.82-.02t-.82-.061q-.41-.04-.82-.1-.4-.06-.81-.141-.4-.08-.8-.18-.4-.1-.79-.219t-.78-.258q-.39-.138-.77-.295-.38-.158-.75-.333-.37-.176-.73-.37-.36-.193-.72-.405-.35-.211-.69-.439-.34-.228-.67-.473-.33-.245-.65-.506-.32-.26-.62-.536-.31-.276-.6-.567-.29-.291-.56-.595-.28-.305-.54-.622-.26-.318-.51-.648-.24-.33-.47-.672-.23-.342-.44-.694-.21-.352-.4-.715-.2-.362-.37-.734-.18-.371-.34-.751-.15-.38-.29-.766-.14-.387-.26-.781-.12-.393-.22-.792-.1-.398-.18-.801-.08-.403-.14-.81-.06-.406-.1-.815-.04-.409-.06-.82-.02-.41-.02-.821v-80.36q0-.411.02-.821.02-.411.06-.82.04-.409.1-.815.06-.407.14-.81.08-.403.18-.802.1-.398.22-.791.12-.394.26-.781.14-.386.29-.766.16-.38.34-.751.17-.372.37-.734.19-.363.4-.715.21-.353.44-.694.23-.342.47-.672.25-.33.51-.648.26-.317.54-.622.27-.304.56-.595.29-.291.6-.567.3-.276.62-.536.32-.261.65-.506t.67-.473q.34-.228.69-.439.36-.212.72-.405.36-.194.73-.37t.75-.333q.38-.157.77-.295.39-.139.78-.258t.79-.219q.4-.1.8-.18.41-.081.81-.141.41-.06.82-.1.41-.041.82-.061.41-.02.82-.02Z"/></g><g clip-path="url(#a)"><text transform="scale(1.67409)" font-size="11" font-family="'DejaVu Sans', -apple-system, BlinkMacSystemFont, 'Segoe UI', Roboto, Helvetica, Arial, sans-serif, 'Apple Color Emoji', 'Segoe UI Emoji', 'Segoe UI Symbol'" x="876.016" y="253">
						Fill in a Post
				</text></g><g clip-path="url(#a)"><text transform="scale(1.67409)" font-size="11" font-family="'DejaVu Sans', -apple-system, BlinkMacSystemFont, 'Segoe UI', Roboto, Helvetica, Arial, sans-serif, 'Apple Color Emoji', 'Segoe UI Emoji', 'Segoe UI Symbol'" x="895.188" y="266">
						label
				</text></g><g clip-path="url(#a)"><path fill="#fff" d="M983.96 372.91h105.47q.41 0 .82.02t.82.061q.41.04.82.1.4.06.81.141.4.08.8.18.4.1.79.219t.78.258q.39.138.77.295.38.157.75.333.37.176.73.37.36.193.72.405.35.211.69.439.34.228.67.473.33.245.65.506.32.26.62.536.31.276.6.567.29.291.56.595.28.305.54.622.26.318.51.648.24.33.47.672.23.341.44.694.21.352.4.715.2.362.37.734.18.371.34.751.15.38.29.766.14.387.26.781.12.393.22.791.1.399.18.802.08.403.14.81.06.406.1.815.04.409.06.82.02.41.02.821v80.36q0 .411-.02.821-.02.411-.06.82-.04.409-.1.815-.06.407-.14.81-.08.403-.18.801-.1.399-.22.792-.12.394-.26.78-.14.387-.29.767-.16.38-.34.751-.17.372-.37.734-.19.363-.4.715-.21.352-.44.694-.23.342-.47.672-.25.33-.51.648-.26.317-.54.622-.27.304-.56.595-.29.291-.6.567-.3.276-.62.536-.32.261-.65.506t-.67.473q-.34.228-.69.439-.36.212-.72.405-.36.194-.73.37-.37.175-.75.333-.38.157-.77.295-.39.139-.78.258t-.79.219q-.4.1-.8.18-.41.081-.81.141-.41.06-.82.1-.41.041-.82.061-.41.02-.82.02H983.96q-.411 0-.821-.02-.411-.02-.82-.061-.409-.04-.815-.1-.407-.06-.81-.141-.403-.08-.802-.18-.398-.1-.791-.219-.394-.119-.781-.258-.387-.138-.766-.295-.38-.158-.751-.333-.372-.176-.734-.37-.363-.193-.715-.405-.353-.211-.694-.439-.342-.228-.672-.473-.33-.245-.648-.506-.318-.26-.622-.536-.305-.276-.595-.567-.291-.291-.567-.595-.276-.305-.536-.622-.261-.318-.506-.648t-.473-.672q-.228-.342-.44-.694-.211-.352-.404-.715-.194-.362-.37-.734-.176-.371-.333-.751-.157-.38-.296-.766-.138-.387-.257-.781-.12-.393-.219-.792-.1-.398-.18-.801-.081-.403-.141-.81-.06-.406-.1-.815-.041-.409-.061-.82-.02-.41-.02-.821v-80.36q0-.411.02-.821.02-.411.061-.82.04-.409.1-.815.06-.407.141-.81.08-.403.18-.802.099-.398.219-.791.119-.394.257-.781.139-.386.296-.766.157-.38.333-.751.176-.372.37-.734.193-.363.404-.715.212-.353.44-.694.228-.342.473-.672.245-.33.506-.648.26-.317.536-.622.276-.304.567-.595.29-.291.595-.567.304-.276.622-.536.318-.261.648-.506t.672-.473q.341-.228.694-.439.352-.212.715-.405.362-.194.734-.37.371-.176.751-.333.379-.157.766-.295.387-.139.781-.258.393-.119.791-.219.399-.1.802-.18.403-.081.81-.141.406-.06.815-.1.409-.041.82-.061.41-.02.821-.02Z"/></g><g clip-path="url(#a)"><path fill="none" stroke="#000" stroke-width="3.35" d="M983.96 372.91h105.47q.41 0 .82.02t.82.061q.41.04.82.1.4.06.81.141.4.08.8.18.4.1.79.219t.78.258q.39.138.77.295.38.157.75.333.37.176.73.37.36.193.72.405.35.211.69.439.34.228.67.473.33.245.65.506.32.26.62.536.31.276.6.567.29.291.56.595.28.305.54.622.26.318.51.648.24.33.47.672.23.341.44.694.21.352.4.715.2.362.37.734.18.371.34.751.15.38.29.766.14.387.26.781.12.393.22.791.1.399.18.802.08.403.14.81.06.406.1.815.04.409.06.82.02.41.02.821v80.36q0 .411-.02.821-.02.411-.06.82-.04.409-.1.815-.06.407-.14.81-.08.403-.18.801-.1.399-.22.792-.12.394-.26.78-.14.387-.29.767-.16.38-.34.751-.17.372-.37.734-.19.363-.4.715-.21.352-.44.694-.23.342-.47.672-.25.33-.51.648-.26.317-.54.622-.27.304-.56.595-.29.291-.6.567-.3.276-.62.536-.32.261-.65.506t-.67.473q-.34.228-.69.439-.36.212-.72.405-.36.194-.73.37-.37.175-.75.333-.38.157-.77.295-.39.139-.78.258t-.79.219q-.4.1-.8.18-.41.081-.81.141-.41.06-.82.1-.41.041-.82.061-.41.02-.82.02H983.96q-.411 0-.821-.02-.411-.02-.82-.061-.409-.04-.815-.1-.407-.06-.81-.141-.403-.08-.802-.18-.398-.1-.791-.219-.394-.119-.781-.258-.387-.138-.766-.295-.38-.158-.751-.333-.372-.176-.734-.37-.363-.193-.715-.405-.353-.211-.694-.439-.342-.228-.672-.473-.33-.245-.648-.506-.318-.26-.622-.536-.305-.276-.595-.567-.291-.291-.567-.595-.276-.305-.536-.622-.261-.318-.506-.648t-.473-.672q-.228-.342-.44-.694-.211-.352-.404-.715-.194-.362-.37-.734-.176-.371-.333-.751-.157-.38-.296-.766-.138-.387-.257-.781-.12-.393-.219-.792-.1-.398-.18-.801-.081-.403-.141-.81-.06-.406-.1-.815-.041-.409-.061-.82-.02-.41-.02-.821v-80.36q0-.411.02-.821.02-.411.061-.82.04-.409.1-.815.06-.407.141-.81.08-.403.18-.802.099-.398.219-.791.119-.394.257-.781.139-.386.296-.766.157-.38.333-.751.176-.372.37-.734.193-.363.404-.715.212-.353.44-.694.228-.342.473-.672.245-.33.506-.648.26-.317.536-.622.276-.304.567-.595.29-.291.595-.567.304-.276.622-.536.318-.261.648-.506t.672-.473q.341-.228.694-.439.352-.212.715-.405.362-.194.734-.37.371-.176.751-.333.379-.157.766-.295.387-.139.781-.258.393-.119.791-.219.399-.1.802-.18.403-.081.81-.141.406-.06.815-.1.409-.041.82-.061.41-.02.821-.02Z"/></g><g clip-path="url(#a)"><text transform="scale(1.67409)" font-size="11" font-family="'DejaVu Sans', -apple-system, BlinkMacSystemFont, 'Segoe UI', Roboto, Helvetica, Arial, sans-serif, 'Apple Color Emoji', 'Segoe UI Emoji', 'Segoe UI Symbol'" x="580.281" y="246">
						Check if extra
				</text></g><g clip-path="url(#a)"><text transform="scale(1.67409)" font-size="11" font-family="'DejaVu Sans', -apple-system, BlinkMacSystemFont, 'Segoe UI', Roboto, Helvetica, Arial, sans-serif, 'Apple Color Emoji', 'Segoe UI Emoji', 'Segoe UI Symbol'" x="585.453" y="259">
						insurance is
				</text></g><g clip-path="url(#a)"><text transform="scale(1.67409)" font-size="11" font-family="'DejaVu Sans', -apple-system, BlinkMacSystemFont, 'Segoe UI', Roboto, Helvetica, Arial, sans-serif, 'Apple Color Emoji', 'Segoe UI Emoji', 'Segoe UI Symbol'" x="590.594" y="273">
						necessary
				</text></g><g clip-path="url(#a)"><path fill="#fff" d="m1271.91 394.68 35.15 35.15-35.15 35.16-35.16-35.16 35.16-35.15Z"/></g><g clip-path="url(#a)"><path fill="none" stroke="#000" stroke-width="3.35" stroke-miterlimit="10" d="m1271.91 394.68 35.15 35.15-35.15 35.16-35.16-35.16 35.16-35.15Z"/></g><g clip-path="url(#a)"><circle fill="none" stroke="#000" stroke-width="8.37" transform="translate(.5 .5)" cx="1271.41" cy="429.33" r="15.1"/></g><g clip-path="url(#a)"><path fill="#fff" d="m1757.39 394.68 35.16 35.15-35.16 35.16-35.15-35.16 35.15-35.15Z"/></g><g clip-path="url(#a)"><path fill="none" stroke="#000" stroke-width="3.35" stroke-miterlimit="10" d="m1757.39 394.68 35.16 35.15-35.16 35.16-35.15-35.16 35.15-35.15Z"/></g><g clip-path="url(#a)"><circle fill="none" stroke="#000" stroke-width="8.37" transform="translate(.5 .5)" cx="1756.89" cy="429.33" r="15.1"/></g><g clip-path="url(#a)"><path fill="#fff" d="m1891.32 593.89 35.16 35.16-35.16 35.15-35.15-35.15 35.15-35.16Z"/></g><g clip-path="url(#a)"><path fill="none" stroke="#000" stroke-width="3.35" stroke-miterlimit="10" d="m1891.32 593.89 35.16 35.16-35.16 35.15-35.15-35.15 35.15-35.16Z"/></g><g clip-path="url(#a)"><path d="m1900.767 613.64 5.968 5.967-9.447 9.447 9.447 9.447-5.968 5.968-9.447-9.447-9.447 9.447-5.968-5.968 9.447-9.447-9.447-9.447 5.968-5.968 9.447 9.447 9.447-9.447Z"/></g><g clip-path="url(#a)"><path fill="none" stroke="#000" stroke-miterlimit="10" d="m1900.767 613.64 5.968 5.967-9.447 9.447 9.447 9.447-5.968 5.968-9.447-9.447-9.447 9.447-5.968-5.968 9.447-9.447-9.447-9.447 5.968-5.968 9.447 9.447 9.447-9.447Z"/></g><g clip-path="url(#a)"><path fill="none" stroke="#E9E9E9" stroke-width="2" stroke-miterlimit="10" d="M1340.54 629.05h208.43q4.18 0 0 0h-21.22"/></g><g clip-path="url(#a)"><path fill="#E9E9E9" d="m1550.35 629.05-22.6 7.53v-15.06l22.6 7.53Z"/></g><g clip-path="url(#a)"><path fill="none" stroke="#E9E9E9" stroke-width="2.51" stroke-miterlimit="10" d="m1550.35 629.05-22.6 7.53v-15.06l22.6 7.53Z"/></g><g clip-path="url(#a)"><path fill="none" stroke="#000" stroke-width="10" stroke-miterlimit="10" d="M670.91 629.05h109.65q4.19 0 0 0h-21.22"/></g><g clip-path="url(#a)"><path d="m781.94 629.05-22.6 7.53v-15.06l22.6 7.53Z"/></g><g clip-path="url(#a)"><path fill="none" stroke="#000" stroke-width="2.51" stroke-miterlimit="10" d="m781.94 629.05-22.6 7.53v-15.06l22.6 7.53Z"/></g><g clip-path="url(#a)"><path fill="none" stroke="#A7A7A7" stroke-width="6" stroke-miterlimit="10" d="M1307.06 429.83h141.46q4.19 0 0 0h-21.22"/></g><g clip-path="url(#a)"><path fill="#A7A7A7" d="m1449.9 429.83-22.6 7.54V422.3l22.6 7.53Z"/></g><g clip-path="url(#a)"><path fill="none" stroke="#A7A7A7" stroke-width="2.51" stroke-miterlimit="10" d="m1449.9 429.83-22.6 7.54V422.3l22.6 7.53Z"/></g><g clip-path="url(#a)"><text transform="scale(1.67409)" font-size="11" font-family="'DejaVu Sans', -apple-system, BlinkMacSystemFont, 'Segoe UI', Roboto, Helvetica, Arial, sans-serif, 'Apple Color Emoji', 'Segoe UI Emoji', 'Segoe UI Symbol'" x="795.219" y="243">
						Always
				</text></g><g clip-path="url(#a)"><path fill="none" stroke="#7A7A7A" stroke-width="8" stroke-miterlimit="10" d="M819.9 593.89V434.02q0-4.19 4.19-4.19h138.95q4.18 0 0 0h-21.23"/></g><g clip-path="url(#a)"><path fill="#7A7A7A" d="m964.41 429.83-22.6 7.54V422.3l22.6 7.53Z"/></g><g clip-path="url(#a)"><path fill="none" stroke="#7A7A7A" stroke-width="2.51" stroke-miterlimit="10" d="m964.41 429.83-22.6 7.54V422.3l22.6 7.53Z"/></g><g clip-path="url(#a)"><text transform="scale(1.67409)" font-size="11" font-family="'DejaVu Sans', -apple-system, BlinkMacSystemFont, 'Segoe UI', Roboto, Helvetica, Arial, sans-serif, 'Apple Color Emoji', 'Segoe UI Emoji', 'Segoe UI Symbol'" x="508.594" y="280">
						Normal
				</text></g><g clip-path="url(#a)"><text transform="scale(1.67409)" font-size="11" font-family="'DejaVu Sans', -apple-system, BlinkMacSystemFont, 'Segoe UI', Roboto, Helvetica, Arial, sans-serif, 'Apple Color Emoji', 'Segoe UI Emoji', 'Segoe UI Symbol'" x="516.984" y="293">
						Post
				</text></g><g clip-path="url(#a)"><path fill="none" stroke="#E9E9E9" stroke-width="2" stroke-miterlimit="10" d="M855.06 629.05h342.35q4.18 0 0 0h-21.22"/></g><g clip-path="url(#a)"><path fill="#E9E9E9" d="m1198.79 629.05-22.6 7.53v-15.06l22.6 7.53Z"/></g><g clip-path="url(#a)"><path fill="none" stroke="#E9E9E9" stroke-width="2.51" stroke-miterlimit="10" d="m1198.79 629.05-22.6 7.53v-15.06l22.6 7.53Z"/></g><g clip-path="url(#a)"><text transform="scale(1.67409)" font-size="11" font-family="'DejaVu Sans', -apple-system, BlinkMacSystemFont, 'Segoe UI', Roboto, Helvetica, Arial, sans-serif, 'Apple Color Emoji', 'Segoe UI Emoji', 'Segoe UI Symbol'" x="588.672" y="360">
						Special
				</text></g><g clip-path="url(#a)"><text transform="scale(1.67409)" font-size="11" font-family="'DejaVu Sans', -apple-system, BlinkMacSystemFont, 'Segoe UI', Roboto, Helvetica, Arial, sans-serif, 'Apple Color Emoji', 'Segoe UI Emoji', 'Segoe UI Symbol'" x="589.688" y="373">
						Carrier
				</text></g><g clip-path="url(#a)"><path fill="none" stroke="#000" stroke-width="10" stroke-miterlimit="10" d="M419.79 629.05h107.98q4.19 0 0 0h-21.22"/></g><g clip-path="url(#a)"><path d="m529.15 629.05-22.6 7.53v-15.06l22.6 7.53Z"/></g><g clip-path="url(#a)"><path fill="none" stroke="#000" stroke-width="2.51" stroke-miterlimit="10" d="m529.15 629.05-22.6 7.53v-15.06l22.6 7.53Z"/></g><g clip-path="url(#a)"><path fill="none" stroke="#7A7A7A" stroke-width="8" stroke-miterlimit="10" d="M1792.55 429.83h94.59q4.18 0 4.18 4.19v155.69q0 4.18 0 0v-21.22"/></g><g clip-path="url(#a)"><path fill="#7A7A7A" d="m1891.32 591.09-7.53-22.6h15.06l-7.53 22.6Z"/></g><g clip-path="url(#a)"><path fill="none" stroke="#7A7A7A" stroke-width="2.51" stroke-miterlimit="10" d="m1891.32 591.09-7.53-22.6h15.06l-7.53 22.6Z"/></g><g clip-path="url(#a)"><path fill="none" stroke="#E9E9E9" stroke-width="2" stroke-miterlimit="10" d="M1692.1 629.05h159.88q4.19 0 0 0h-21.22"/></g><g clip-path="url(#a)"><path fill="#E9E9E9" d="m1853.36 629.05-22.6 7.53v-15.06l22.6 7.53Z"/></g><g clip-path="url(#a)"><path fill="none" stroke="#E9E9E9" stroke-width="2.51" stroke-miterlimit="10" d="m1853.36 629.05-22.6 7.53v-15.06l22.6 7.53Z"/></g><g clip-path="url(#a)"><path fill="none" stroke="#000" stroke-width="10" stroke-miterlimit="10" d="M259.08 629.05h86.22q4.18 0 0 0h-21.23"/></g><g clip-path="url(#a)"><path d="m346.67 629.05-22.6 7.53v-15.06l22.6 7.53Z"/></g><g clip-path="url(#a)"><path fill="none" stroke="#000" stroke-width="2.51" stroke-miterlimit="10" d="m346.67 629.05-22.6 7.53v-15.06l22.6 7.53Z"/></g><g clip-path="url(#a)"><path fill="none" stroke="#A7A7A7" stroke-width="6" stroke-miterlimit="10" d="M1591.66 429.83h126.39q4.19 0 0 0h-21.22"/></g><g clip-path="url(#a)"><path fill="#A7A7A7" d="m1719.43 429.83-22.6 7.54V422.3l22.6 7.53Z"/></g><g clip-path="url(#a)"><path fill="none" stroke="#A7A7A7" stroke-width="2.51" stroke-miterlimit="10" d="m1719.43 429.83-22.6 7.54V422.3l22.6 7.53Z"/></g><g clip-path="url(#a)"><path fill="none" stroke="#7A7A7A" stroke-width="8" stroke-miterlimit="10" d="M1106.17 429.83h126.4q4.18 0 0 0h-21.23"/></g><g clip-path="url(#a)"><path fill="#7A7A7A" d="m1233.94 429.83-22.6 7.54V422.3l22.6 7.53Z"/></g><g clip-path="url(#a)"><path fill="none" stroke="#7A7A7A" stroke-width="2.51" stroke-miterlimit="10" d="m1233.94 429.83-22.6 7.54V422.3l22.6 7.53Z"/></g><g clip-path="url(#a)"><path fill="none" stroke="#000" stroke-width="1.67" stroke-miterlimit="10" d="M116.28 779.22H66.06v351.56h50.22"/></g><g clip-path="url(#a)"><path fill="none" stroke="#000" stroke-width="1.67" stroke-miterlimit="10" d="M116.28 779.22h2527.88v351.56H116.28"/></g><g clip-path="url(#a)"><text transform="rotate(-90 91.172 954.998) scale(1.67409)" font-size="11" font-family="'DejaVu Sans', -apple-system, BlinkMacSystemFont, 'Segoe UI', Roboto, Helvetica, Arial, sans-serif, 'Apple Color Emoji', 'Segoe UI Emoji', 'Segoe UI Symbol'" x="2.297" y="573">
						Warehouse Worker
				</text></g><g clip-path="url(#a)"><path fill="#fff" d="M766.33 890.21H871.8q.411 0 .821.02.411.02.82.061.409.04.815.1.407.06.81.141.403.08.801.18.399.1.792.219.394.119.781.258.386.138.766.295.38.157.751.333.372.176.734.37.363.193.715.405.353.211.694.439.342.228.672.473.33.245.648.506.317.261.622.537.304.275.595.566.29.291.566.595.276.305.537.622.261.318.506.648.244.33.473.672.228.341.439.694.212.352.405.715.194.362.37.734.175.371.333.751.157.379.295.766.139.387.258.781.119.393.219.791.1.399.18.802.08.403.141.81.06.406.1.815.041.409.061.82.02.41.02.821v80.36q0 .411-.02.821-.02.411-.061.82-.04.409-.1.815-.061.407-.141.81-.08.403-.18.802-.1.398-.219.791-.119.394-.258.781-.138.386-.295.766-.158.38-.333.751-.176.372-.37.734-.193.362-.405.715-.211.352-.439.694-.229.342-.473.672-.245.33-.506.648-.261.317-.536.622-.276.304-.567.595-.291.291-.595.566-.305.276-.622.537-.318.26-.648.51-.33.24-.672.47-.341.23-.694.44-.352.21-.715.4-.362.2-.734.37-.371.18-.751.34-.38.15-.766.29-.387.14-.781.26-.393.12-.792.22-.398.1-.801.18-.403.08-.81.14-.406.06-.815.1-.409.04-.82.06-.41.02-.821.02H766.33q-.411 0-.821-.02-.411-.02-.82-.06-.409-.04-.815-.1-.407-.06-.81-.14-.403-.08-.802-.18-.398-.1-.791-.22-.394-.12-.781-.26-.386-.14-.766-.29-.38-.16-.751-.34-.372-.17-.734-.37-.363-.19-.715-.4-.353-.21-.694-.44-.342-.23-.672-.47-.33-.25-.648-.51-.317-.261-.622-.537-.304-.275-.595-.566-.291-.291-.567-.595-.276-.305-.536-.622-.261-.318-.506-.648t-.473-.672q-.228-.342-.439-.694-.212-.353-.405-.715-.194-.362-.37-.734-.176-.371-.333-.751-.157-.38-.295-.766-.139-.387-.258-.781-.12-.393-.219-.791-.1-.399-.18-.802-.081-.403-.141-.81-.06-.406-.1-.815-.041-.409-.061-.82-.02-.41-.02-.821v-80.36q0-.411.02-.821.02-.411.061-.82.04-.409.1-.815.06-.407.141-.81.08-.403.18-.802.099-.398.219-.791.119-.394.258-.781.138-.386.295-.766.157-.38.333-.751.176-.372.37-.734.193-.363.405-.715.211-.353.439-.694.228-.342.473-.672.245-.33.506-.648.26-.317.537-.622.275-.304.566-.595.291-.291.595-.567.305-.276.622-.536.318-.261.648-.506t.672-.473q.341-.228.694-.44.352-.211.715-.404.362-.194.734-.37.371-.176.751-.333.38-.157.766-.295.387-.139.781-.258.393-.119.791-.219.399-.1.802-.18.403-.081.81-.141.406-.06.815-.1.409-.041.82-.061.41-.02.821-.02Z"/></g><g clip-path="url(#a)"><path fill="none" stroke="#000" stroke-width="3.35" d="M766.33 890.21H871.8q.411 0 .821.02.411.02.82.061.409.04.815.1.407.06.81.141.403.08.801.18.399.1.792.219.394.119.781.258.386.138.766.295.38.157.751.333.372.176.734.37.363.193.715.405.353.211.694.439.342.228.672.473.33.245.648.506.317.261.622.537.304.275.595.566.29.291.566.595.276.305.537.622.261.318.506.648.244.33.473.672.228.341.439.694.212.352.405.715.194.362.37.734.175.371.333.751.157.379.295.766.139.387.258.781.119.393.219.791.1.399.18.802.08.403.141.81.06.406.1.815.041.409.061.82.02.41.02.821v80.36q0 .411-.02.821-.02.411-.061.82-.04.409-.1.815-.061.407-.141.81-.08.403-.18.802-.1.398-.219.791-.119.394-.258.781-.138.386-.295.766-.158.38-.333.751-.176.372-.37.734-.193.362-.405.715-.211.352-.439.694-.229.342-.473.672-.245.33-.506.648-.261.317-.536.622-.276.304-.567.595-.291.291-.595.566-.305.276-.622.537-.318.26-.648.51-.33.24-.672.47-.341.23-.694.44-.352.21-.715.4-.362.2-.734.37-.371.18-.751.34-.38.15-.766.29-.387.14-.781.26-.393.12-.792.22-.398.1-.801.18-.403.08-.81.14-.406.06-.815.1-.409.04-.82.06-.41.02-.821.02H766.33q-.411 0-.821-.02-.411-.02-.82-.06-.409-.04-.815-.1-.407-.06-.81-.14-.403-.08-.802-.18-.398-.1-.791-.22-.394-.12-.781-.26-.386-.14-.766-.29-.38-.16-.751-.34-.372-.17-.734-.37-.363-.19-.715-.4-.353-.21-.694-.44-.342-.23-.672-.47-.33-.25-.648-.51-.317-.261-.622-.537-.304-.275-.595-.566-.291-.291-.567-.595-.276-.305-.536-.622-.261-.318-.506-.648t-.473-.672q-.228-.342-.439-.694-.212-.353-.405-.715-.194-.362-.37-.734-.176-.371-.333-.751-.157-.38-.295-.766-.139-.387-.258-.781-.12-.393-.219-.791-.1-.399-.18-.802-.081-.403-.141-.81-.06-.406-.1-.815-.041-.409-.061-.82-.02-.41-.02-.821v-80.36q0-.411.02-.821.02-.411.061-.82.04-.409.1-.815.06-.407.141-.81.08-.403.18-.802.099-.398.219-.791.119-.394.258-.781.138-.386.295-.766.157-.38.333-.751.176-.372.37-.734.193-.363.405-.715.211-.353.439-.694.228-.342.473-.672.245-.33.506-.648.26-.317.537-.622.275-.304.566-.595.291-.291.595-.567.305-.276.622-.536.318-.261.648-.506t.672-.473q.341-.228.694-.44.352-.211.715-.404.362-.194.734-.37.371-.176.751-.333.38-.157.766-.295.387-.139.781-.258.393-.119.791-.219.399-.1.802-.18.403-.081.81-.141.406-.06.815-.1.409-.041.82-.061.41-.02.821-.02Z"/></g><g clip-path="url(#a)"><text transform="scale(1.67409)" font-size="11" font-family="'DejaVu Sans', -apple-system, BlinkMacSystemFont, 'Segoe UI', Roboto, Helvetica, Arial, sans-serif, 'Apple Color Emoji', 'Segoe UI Emoji', 'Segoe UI Symbol'" x="465.688" y="562">
						Package
				</text></g><g clip-path="url(#a)"><text transform="scale(1.67409)" font-size="11" font-family="'DejaVu Sans', -apple-system, BlinkMacSystemFont, 'Segoe UI', Roboto, Helvetica, Arial, sans-serif, 'Apple Color Emoji', 'Segoe UI Emoji', 'Segoe UI Symbol'" x="471.922" y="575">
						goods
				</text></g><g clip-path="url(#a)"><path fill="#fff" d="m1891.32 911.97 35.16 35.16-35.16 35.15-35.15-35.15 35.15-35.16Z"/></g><g clip-path="url(#a)"><path fill="none" stroke="#000" stroke-width="3.35" stroke-miterlimit="10" d="m1891.32 911.97 35.16 35.16-35.16 35.15-35.15-35.15 35.15-35.16Z"/></g><g clip-path="url(#a)"><path d="M1887.1 929.55h8.44v13.36h13.36v8.44h-13.36v13.35h-8.44v-13.35h-13.36v-8.44h13.36v-13.36Z"/></g><g clip-path="url(#a)"><path fill="none" stroke="#000" stroke-miterlimit="10" d="M1887.1 929.55h8.44v13.36h13.36v8.44h-13.36v13.35h-8.44v-13.35h-13.36v-8.44h13.36v-13.36Z"/></g><g clip-path="url(#a)"><path fill="#fff" d="M2155.83 890.21h105.47q.41 0 .82.02t.82.061q.41.04.82.1.4.06.81.141.4.08.8.18.4.1.79.219t.78.258q.39.138.77.295.38.157.75.333.37.176.73.37.36.193.72.405.35.211.69.439.34.228.67.473.33.245.65.506t.62.537q.31.275.6.566.29.291.56.595.28.305.54.622.26.318.51.648.24.33.47.672.23.341.44.694.21.352.4.715.2.362.37.734.18.371.34.751.15.379.29.766.14.387.26.781.12.393.22.791.1.399.18.802.08.403.14.81.06.406.1.815.04.409.06.82.02.41.02.821v80.36q0 .411-.02.821-.02.411-.06.82-.04.409-.1.815-.06.407-.14.81-.08.403-.18.802-.1.398-.22.791-.12.394-.26.781-.14.386-.29.766-.16.38-.34.751-.17.372-.37.734-.19.362-.4.715-.21.352-.44.694-.23.342-.47.672-.25.33-.51.648-.26.317-.54.622-.27.304-.56.595-.29.291-.6.566-.3.276-.62.537-.32.26-.65.51-.33.24-.67.47-.34.23-.69.44-.36.21-.72.4-.36.2-.73.37-.37.18-.75.34-.38.15-.77.29-.39.14-.78.26t-.79.22q-.4.1-.8.18-.41.08-.81.14-.41.06-.82.1-.41.04-.82.06-.41.02-.82.02h-105.47q-.41 0-.82-.02t-.82-.06q-.41-.04-.82-.1-.4-.06-.81-.14-.4-.08-.8-.18-.4-.1-.79-.22t-.78-.26q-.39-.14-.77-.29-.38-.16-.75-.34-.37-.17-.73-.37-.36-.19-.72-.4-.35-.21-.69-.44-.34-.23-.67-.47-.33-.25-.65-.51-.32-.261-.62-.537-.31-.275-.6-.566-.29-.291-.56-.595-.28-.305-.54-.622-.26-.318-.51-.648-.24-.33-.47-.672-.23-.342-.44-.694-.21-.353-.4-.715-.2-.362-.37-.734-.18-.371-.34-.751-.15-.38-.29-.766-.14-.387-.26-.781-.12-.393-.22-.791-.1-.399-.18-.802-.08-.403-.14-.81-.06-.406-.1-.815-.04-.409-.06-.82-.02-.41-.02-.821v-80.36q0-.411.02-.821.02-.411.06-.82.04-.409.1-.815.06-.407.14-.81.08-.403.18-.802.1-.398.22-.791.12-.394.26-.781.14-.386.29-.766.16-.38.34-.751.17-.372.37-.734.19-.363.4-.715.21-.353.44-.694.23-.342.47-.672.25-.33.51-.648.26-.317.54-.622.27-.304.56-.595.29-.291.6-.567.3-.276.62-.536.32-.261.65-.506t.67-.473q.34-.228.69-.44.36-.211.72-.404.36-.194.73-.37t.75-.333q.38-.157.77-.295.39-.139.78-.258t.79-.219q.4-.1.8-.18.41-.081.81-.141.41-.06.82-.1.41-.041.82-.061.41-.02.82-.02Z"/></g><g clip-path="url(#a)"><path fill="none" stroke="#000" stroke-width="3.35" d="M2155.83 890.21h105.47q.41 0 .82.02t.82.061q.41.04.82.1.4.06.81.141.4.08.8.18.4.1.79.219t.78.258q.39.138.77.295.38.157.75.333.37.176.73.37.36.193.72.405.35.211.69.439.34.228.67.473.33.245.65.506t.62.537q.31.275.6.566.29.291.56.595.28.305.54.622.26.318.51.648.24.33.47.672.23.341.44.694.21.352.4.715.2.362.37.734.18.371.34.751.15.379.29.766.14.387.26.781.12.393.22.791.1.399.18.802.08.403.14.81.06.406.1.815.04.409.06.82.02.41.02.821v80.36q0 .411-.02.821-.02.411-.06.82-.04.409-.1.815-.06.407-.14.81-.08.403-.18.802-.1.398-.22.791-.12.394-.26.781-.14.386-.29.766-.16.38-.34.751-.17.372-.37.734-.19.362-.4.715-.21.352-.44.694-.23.342-.47.672-.25.33-.51.648-.26.317-.54.622-.27.304-.56.595-.29.291-.6.566-.3.276-.62.537-.32.26-.65.51-.33.24-.67.47-.34.23-.69.44-.36.21-.72.4-.36.2-.73.37-.37.18-.75.34-.38.15-.77.29-.39.14-.78.26t-.79.22q-.4.1-.8.18-.41.08-.81.14-.41.06-.82.1-.41.04-.82.06-.41.02-.82.02h-105.47q-.41 0-.82-.02t-.82-.06q-.41-.04-.82-.1-.4-.06-.81-.14-.4-.08-.8-.18-.4-.1-.79-.22t-.78-.26q-.39-.14-.77-.29-.38-.16-.75-.34-.37-.17-.73-.37-.36-.19-.72-.4-.35-.21-.69-.44-.34-.23-.67-.47-.33-.25-.65-.51-.32-.261-.62-.537-.31-.275-.6-.566-.29-.291-.56-.595-.28-.305-.54-.622-.26-.318-.51-.648-.24-.33-.47-.672-.23-.342-.44-.694-.21-.353-.4-.715-.2-.362-.37-.734-.18-.371-.34-.751-.15-.38-.29-.766-.14-.387-.26-.781-.12-.393-.22-.791-.1-.399-.18-.802-.08-.403-.14-.81-.06-.406-.1-.815-.04-.409-.06-.82-.02-.41-.02-.821v-80.36q0-.411.02-.821.02-.411.06-.82.04-.409.1-.815.06-.407.14-.81.08-.403.18-.802.1-.398.22-.791.12-.394.26-.781.14-.386.29-.766.16-.38.34-.751.17-.372.37-.734.19-.363.4-.715.21-.353.44-.694.23-.342.47-.672.25-.33.51-.648.26-.317.54-.622.27-.304.56-.595.29-.291.6-.567.3-.276.62-.536.32-.261.65-.506t.67-.473q.34-.228.69-.44.36-.211.72-.404.36-.194.73-.37t.75-.333q.38-.157.77-.295.39-.139.78-.258t.79-.219q.4-.1.8-.18.41-.081.81-.141.41-.06.82-.1.41-.041.82-.061.41-.02.82-.02Z"/></g><g clip-path="url(#a)"><text transform="scale(1.67409)" font-size="11" font-family="'DejaVu Sans', -apple-system, BlinkMacSystemFont, 'Segoe UI', Roboto, Helvetica, Arial, sans-serif, 'Apple Color Emoji', 'Segoe UI Emoji', 'Segoe UI Symbol'" x="1307.844" y="542">
						Add
				</text></g><g clip-path="url(#a)"><text transform="scale(1.67409)" font-size="11" font-family="'DejaVu Sans', -apple-system, BlinkMacSystemFont, 'Segoe UI', Roboto, Helvetica, Arial, sans-serif, 'Apple Color Emoji', 'Segoe UI Emoji', 'Segoe UI Symbol'" x="1289.188" y="555">
						paperwork
				</text></g><g clip-path="url(#a)"><text transform="scale(1.67409)" font-size="11" font-family="'DejaVu Sans', -apple-system, BlinkMacSystemFont, 'Segoe UI', Roboto, Helvetica, Arial, sans-serif, 'Apple Color Emoji', 'Segoe UI Emoji', 'Segoe UI Symbol'" x="1291.031" y="568">
						and move
				</text></g><g clip-path="url(#a)"><text transform="scale(1.67409)" font-size="11" font-family="'DejaVu Sans', -apple-system, BlinkMacSystemFont, 'Segoe UI', Roboto, Helvetica, Arial, sans-serif, 'Apple Color Emoji', 'Segoe UI Emoji', 'Segoe UI Symbol'" x="1288" y="582">
						package to
				</text></g><g clip-path="url(#a)"><text transform="scale(1.67409)" font-size="11" font-family="'DejaVu Sans', -apple-system, BlinkMacSystemFont, 'Segoe UI', Roboto, Helvetica, Arial, sans-serif, 'Apple Color Emoji', 'Segoe UI Emoji', 'Segoe UI Symbol'" x="1293.25" y="595">
						pick area
				</text></g><g clip-path="url(#a)"><ellipse fill="#fff" cx="2510.24" cy="946.63" rx="26.786" ry="26.785"/></g><g clip-path="url(#a)"><ellipse fill="none" stroke="#000" stroke-width="8.37" cx="2510.24" cy="946.63" rx="26.786" ry="26.785"/></g><g clip-path="url(#a)"><text transform="scale(1.67409)" font-size="11" font-family="'DejaVu Sans', -apple-system, BlinkMacSystemFont, 'Segoe UI', Roboto, Helvetica, Arial, sans-serif, 'Apple Color Emoji', 'Segoe UI Emoji', 'Segoe UI Symbol'" x="1482.641" y="593">
						Goods
				</text></g><g clip-path="url(#a)"><text transform="scale(1.67409)" font-size="11" font-family="'DejaVu Sans', -apple-system, BlinkMacSystemFont, 'Segoe UI', Roboto, Helvetica, Arial, sans-serif, 'Apple Color Emoji', 'Segoe UI Emoji', 'Segoe UI Symbol'" x="1465.859" y="606">
						available for
				</text></g><g clip-path="url(#a)"><text transform="scale(1.67409)" font-size="11" font-family="'DejaVu Sans', -apple-system, BlinkMacSystemFont, 'Segoe UI', Roboto, Helvetica, Arial, sans-serif, 'Apple Color Emoji', 'Segoe UI Emoji', 'Segoe UI Symbol'" x="1488.766" y="619">
						pick
				</text></g><g clip-path="url(#a)"><path fill="none" stroke="#000" stroke-width="10" stroke-miterlimit="10" d="M1926.48 947.13h208.42q4.19 0 0 0h-21.22"/></g><g clip-path="url(#a)"><path d="m2136.28 947.13-22.6 7.53v-15.07l22.6 7.54Z"/></g><g clip-path="url(#a)"><path fill="none" stroke="#000" stroke-width="2.51" stroke-miterlimit="10" d="m2136.28 947.13-22.6 7.53v-15.07l22.6 7.54Z"/></g><g clip-path="url(#a)"><path fill="none" stroke="#000" stroke-width="10" stroke-miterlimit="10" d="M2278.04 947.13h201.72q4.19 0 0 0h-21.22"/></g><g clip-path="url(#a)"><path d="m2481.14 947.13-22.6 7.53v-15.07l22.6 7.54Z"/></g><g clip-path="url(#a)"><path fill="none" stroke="#000" stroke-width="2.51" stroke-miterlimit="10" d="m2481.14 947.13-22.6 7.53v-15.07l22.6 7.54Z"/></g><g clip-path="url(#a)"><path fill="none" stroke="#000" stroke-width="10" stroke-miterlimit="10" d="M888.54 947.13h963.44q4.19 0 0 0h-21.22"/></g><g clip-path="url(#a)"><path d="m1853.36 947.13-22.6 7.53v-15.07l22.6 7.54Z"/></g><g clip-path="url(#a)"><path fill="none" stroke="#000" stroke-width="2.51" stroke-miterlimit="10" d="m1853.36 947.13-22.6 7.53v-15.07l22.6 7.54Z"/></g><g clip-path="url(#a)"><path fill="none" stroke="#BDBDBD" stroke-width="4" stroke-miterlimit="10" d="M1658.62 153.61h94.59q4.18 0 4.18 4.18v232.7q0 4.19 0 0v-21.22"/></g><g clip-path="url(#a)"><path fill="#BDBDBD" d="m1757.39 391.87-7.53-22.6h15.07l-7.54 22.6Z"/></g><g clip-path="url(#a)"><path fill="none" stroke="#BDBDBD" stroke-width="2.51" stroke-miterlimit="10" d="m1757.39 391.87-7.53-22.6h15.07l-7.54 22.6Z"/></g><g clip-path="url(#a)"><path fill="none" stroke="#000" stroke-width="10" stroke-miterlimit="10" d="M1891.32 664.2v243.59q0 4.18 0 0v-21.23"/></g><g clip-path="url(#a)"><path d="m1891.32 909.16-7.53-22.6h15.06l-7.53 22.6Z"/></g><g clip-path="url(#a)"><path fill="none" stroke="#000" stroke-width="2.51" stroke-miterlimit="10" d="m1891.32 909.16-7.53-22.6h15.06l-7.53 22.6Z"/></g><g clip-path="url(#a)"><path fill="none" stroke="#000" stroke-width="10" stroke-miterlimit="10" d="M384.64 664.2v278.74q0 4.19 4.18 4.19H745.4q4.19 0 0 0h-21.22"/></g><g clip-path="url(#a)"><path d="m746.78 947.13-22.6 7.53v-15.07l22.6 7.54Z"/></g><g clip-path="url(#a)"><path fill="none" stroke="#000" stroke-width="2.51" stroke-miterlimit="10" d="m746.78 947.13-22.6 7.53v-15.07l22.6 7.54Z"/></g><g clip-path="url(#a)"><path fill="none" stroke="#BDBDBD" stroke-width="4" stroke-miterlimit="10" d="M1271.91 394.68V157.79q0-4.18 4.18-4.18h239.4q4.18 0 0 0h-21.23"/></g><g clip-path="url(#a)"><path fill="#BDBDBD" d="m1516.87 153.61-22.61 7.53v-15.07l22.61 7.54Z"/></g><g clip-path="url(#a)"><path fill="none" stroke="#BDBDBD" stroke-width="2.51" stroke-miterlimit="10" d="m1516.87 153.61-22.61 7.53v-15.07l22.61 7.54Z"/></g><g clip-path="url(#a)"><text transform="scale(1.67409)" font-size="11" font-family="'DejaVu Sans', -apple-system, BlinkMacSystemFont, 'Segoe UI', Roboto, Helvetica, Arial, sans-serif, 'Apple Color Emoji', 'Segoe UI Emoji', 'Segoe UI Symbol'" x="794.656" y="113">
						extra
				</text></g><g clip-path="url(#a)"><text transform="scale(1.67409)" font-size="11" font-family="'DejaVu Sans', -apple-system, BlinkMacSystemFont, 'Segoe UI', Roboto, Helvetica, Arial, sans-serif, 'Apple Color Emoji', 'Segoe UI Emoji', 'Segoe UI Symbol'" x="782.109" y="126">
						insurance
				</text></g><g clip-path="url(#a)"><text transform="scale(1.67409)" font-size="11" font-family="'DejaVu Sans', -apple-system, BlinkMacSystemFont, 'Segoe UI', Roboto, Helvetica, Arial, sans-serif, 'Apple Color Emoji', 'Segoe UI Emoji', 'Segoe UI Symbol'" x="785.953" y="139">
						required
				</text></g><g clip-path="url(#a)"><path fill="#0083AF" d="M240 593h38v21h-38z"/></g><g clip-path="url(#a)"><path fill="none" stroke="#0083AF" stroke-width="1.67" d="M240 593h38v21h-38z"/></g><g clip-path="url(#a)"><text fill="#fff" font-size="18.41" font-family="'DejaVu Sans', -apple-system, BlinkMacSystemFont, 'Segoe UI', Roboto, Helvetica, Arial, sans-serif, 'Apple Color Emoji', 'Segoe UI Emoji', 'Segoe UI Symbol'" x="241.422" y="610.516">
						647
				</text></g><g clip-path="url(#a)"><path fill="#0083AF" d="M400 583h38v21h-38z"/></g><g clip-path="url(#a)"><path fill="none" stroke="#0083AF" stroke-width="1.67" d="M400 583h38v21h-38z"/></g><g clip-path="url(#a)"><text fill="#fff" font-size="18.41" font-family="'DejaVu Sans', -apple-system, BlinkMacSystemFont, 'Segoe UI', Roboto, Helvetica, Arial, sans-serif, 'Apple Color Emoji', 'Segoe UI Emoji', 'Segoe UI Symbol'" x="401.422" y="600.516">
						647
				</text></g><g clip-path="url(#a)"><path fill="#0083AF" d="M651 562h38v21h-38z"/></g><g clip-path="url(#a)"><path fill="none" stroke="#0083AF" stroke-width="1.67" d="M651 562h38v21h-38z"/></g><g clip-path="url(#a)"><text fill="#fff" font-size="18.41" font-family="'DejaVu Sans', -apple-system, BlinkMacSystemFont, 'Segoe UI', Roboto, Helvetica, Arial, sans-serif, 'Apple Color Emoji', 'Segoe UI Emoji', 'Segoe UI Symbol'" x="652.422" y="579.516">
						647
				</text></g><g clip-path="url(#a)"><path fill="#0083AF" d="M869 880h38v21h-38z"/></g><g clip-path="url(#a)"><path fill="none" stroke="#0083AF" stroke-width="1.67" d="M869 880h38v21h-38z"/></g><g clip-path="url(#a)"><text fill="#fff" font-size="18.41" font-family="'DejaVu Sans', -apple-system, BlinkMacSystemFont, 'Segoe UI', Roboto, Helvetica, Arial, sans-serif, 'Apple Color Emoji', 'Segoe UI Emoji', 'Segoe UI Symbol'" x="870.422" y="897.516">
						647
				</text></g><g clip-path="url(#a)"><path fill="#0083AF" d="M836 583h38v21h-38z"/></g><g clip-path="url(#a)"><path fill="none" stroke="#0083AF" stroke-width="1.67" d="M836 583h38v21h-38z"/></g><g clip-path="url(#a)"><text fill="#fff" font-size="18.41" font-family="'DejaVu Sans', -apple-system, BlinkMacSystemFont, 'Segoe UI', Roboto, Helvetica, Arial, sans-serif, 'Apple Color Emoji', 'Segoe UI Emoji', 'Segoe UI Symbol'" x="837.422" y="600.516">
						647
				</text></g><g clip-path="url(#a)"><path fill="#0083AF" d="M1907 583h38v21h-38z"/></g><g clip-path="url(#a)"><path fill="none" stroke="#0083AF" stroke-width="1.67" d="M1907 583h38v21h-38z"/></g><g clip-path="url(#a)"><text fill="#fff" font-size="18.41" font-family="'DejaVu Sans', -apple-system, BlinkMacSystemFont, 'Segoe UI', Roboto, Helvetica, Arial, sans-serif, 'Apple Color Emoji', 'Segoe UI Emoji', 'Segoe UI Symbol'" x="1908.422" y="600.516">
						647
				</text></g><g clip-path="url(#a)"><path fill="#0083AF" d="M1907 901h38v21h-38z"/></g><g clip-path="url(#a)"><path fill="none" stroke="#0083AF" stroke-width="1.67" d="M1907 901h38v21h-38z"/></g><g clip-path="url(#a)"><text fill="#fff" font-size="18.41" font-family="'DejaVu Sans', -apple-system, BlinkMacSystemFont, 'Segoe UI', Roboto, Helvetica, Arial, sans-serif, 'Apple Color Emoji', 'Segoe UI Emoji', 'Segoe UI Symbol'" x="1908.422" y="918.516">
						647
				</text></g><g clip-path="url(#a)"><path fill="#0083AF" d="M2259 880h38v21h-38z"/></g><g clip-path="url(#a)"><path fill="none" stroke="#0083AF" stroke-width="1.67" d="M2259 880h38v21h-38z"/></g><g clip-path="url(#a)"><text fill="#fff" font-size="18.41" font-family="'DejaVu Sans', -apple-system, BlinkMacSystemFont, 'Segoe UI', Roboto, Helvetica, Arial, sans-serif, 'Apple Color Emoji', 'Segoe UI Emoji', 'Segoe UI Symbol'" x="2260.422" y="897.516">
						647
				</text></g><g clip-path="url(#a)"><path fill="#0083AF" d="M2518 910h38v21h-38z"/></g><g clip-path="url(#a)"><path fill="none" stroke="#0083AF" stroke-width="1.67" d="M2518 910h38v21h-38z"/></g><g clip-path="url(#a)"><text fill="#fff" font-size="18.41" font-family="'DejaVu Sans', -apple-system, BlinkMacSystemFont, 'Segoe UI', Roboto, Helvetica, Arial, sans-serif, 'Apple Color Emoji', 'Segoe UI Emoji', 'Segoe UI Symbol'" x="2519.422" y="927.516">
						647
				</text></g><g clip-path="url(#a)"><path fill="#D6EBF2" d="M1327 562h26v21h-26z"/></g><g clip-path="url(#a)"><path fill="none" stroke="#D6EBF2" stroke-width="1.67" d="M1327 562h26v21h-26z"/></g><g clip-path="url(#a)"><text font-size="18.41" font-family="'DejaVu Sans', -apple-system, BlinkMacSystemFont, 'Segoe UI', Roboto, Helvetica, Arial, sans-serif, 'Apple Color Emoji', 'Segoe UI Emoji', 'Segoe UI Symbol'" x="1328.281" y="579.516">
						32
				</text></g><g clip-path="url(#a)"><path fill="#D6EBF2" d="M1679 562h26v21h-26z"/></g><g clip-path="url(#a)"><path fill="none" stroke="#D6EBF2" stroke-width="1.67" d="M1679 562h26v21h-26z"/></g><g clip-path="url(#a)"><text font-size="18.41" font-family="'DejaVu Sans', -apple-system, BlinkMacSystemFont, 'Segoe UI', Roboto, Helvetica, Arial, sans-serif, 'Apple Color Emoji', 'Segoe UI Emoji', 'Segoe UI Symbol'" x="1680.281" y="579.516">
						32
				</text></g><g clip-path="url(#a)"><path fill="#369DC0" d="M1087 362h38v21h-38z"/></g><g clip-path="url(#a)"><path fill="none" stroke="#369DC0" stroke-width="1.67" d="M1087 362h38v21h-38z"/></g><g clip-path="url(#a)"><text fill="#fff" font-size="18.41" font-family="'DejaVu Sans', -apple-system, BlinkMacSystemFont, 'Segoe UI', Roboto, Helvetica, Arial, sans-serif, 'Apple Color Emoji', 'Segoe UI Emoji', 'Segoe UI Symbol'" x="1088.422" y="379.516">
						615
				</text></g><g clip-path="url(#a)"><path fill="#369DC0" d="M1288 384h38v21h-38z"/></g><g clip-path="url(#a)"><path fill="none" stroke="#369DC0" stroke-width="1.67" d="M1288 384h38v21h-38z"/></g><g clip-path="url(#a)"><text fill="#fff" font-size="18.41" font-family="'DejaVu Sans', -apple-system, BlinkMacSystemFont, 'Segoe UI', Roboto, Helvetica, Arial, sans-serif, 'Apple Color Emoji', 'Segoe UI Emoji', 'Segoe UI Symbol'" x="1289.422" y="401.516">
						615
				</text></g><g clip-path="url(#a)"><path fill="#369DC0" d="M1773 384h38v21h-38z"/></g><g clip-path="url(#a)"><path fill="none" stroke="#369DC0" stroke-width="1.67" d="M1773 384h38v21h-38z"/></g><g clip-path="url(#a)"><text fill="#fff" font-size="18.41" font-family="'DejaVu Sans', -apple-system, BlinkMacSystemFont, 'Segoe UI', Roboto, Helvetica, Arial, sans-serif, 'Apple Color Emoji', 'Segoe UI Emoji', 'Segoe UI Symbol'" x="1774.422" y="401.516">
						615
				</text></g><g clip-path="url(#a)"><path fill="#A1D1E1" d="M1639 86h38v21h-38z"/></g><g clip-path="url(#a)"><path fill="none" stroke="#A1D1E1" stroke-width="1.67" d="M1639 86h38v21h-38z"/></g><g clip-path="url(#a)"><text font-size="18.41" font-family="'DejaVu Sans', -apple-system, BlinkMacSystemFont, 'Segoe UI', Roboto, Helvetica, Arial, sans-serif, 'Apple Color Emoji', 'Segoe UI Emoji', 'Segoe UI Symbol'" x="1640.422" y="103.516">
						184
				</text></g><g clip-path="url(#a)"><path fill="#6BB7D1" d="M1572 362h38v21h-38z"/></g><g clip-path="url(#a)"><path fill="none" stroke="#6BB7D1" stroke-width="1.67" d="M1572 362h38v21h-38z"/></g><g clip-path="url(#a)"><text fill="#fff" font-size="18.41" font-family="'DejaVu Sans', -apple-system, BlinkMacSystemFont, 'Segoe UI', Roboto, Helvetica, Arial, sans-serif, 'Apple Color Emoji', 'Segoe UI Emoji', 'Segoe UI Symbol'" x="1573.422" y="379.516">
						431
				</text></g><g clip-path="url(#a)"><path fill="#6D00AF" d="M285 619h38v21h-38z"/></g><g clip-path="url(#a)"><path fill="none" stroke="#6D00AF" stroke-width="1.67" d="M285 619h38v21h-38z"/></g><g clip-path="url(#a)"><text fill="#fff" font-size="18.41" font-family="'DejaVu Sans', -apple-system, BlinkMacSystemFont, 'Segoe UI', Roboto, Helvetica, Arial, sans-serif, 'Apple Color Emoji', 'Segoe UI Emoji', 'Segoe UI Symbol'" x="286.422" y="636.516">
						647
				</text></g><g clip-path="url(#a)"><path fill="#6D00AF" d="M456 619h38v21h-38z"/></g><g clip-path="url(#a)"><path fill="none" stroke="#6D00AF" stroke-width="1.67" d="M456 619h38v21h-38z"/></g><g clip-path="url(#a)"><text fill="#fff" font-size="18.41" font-family="'DejaVu Sans', -apple-system, BlinkMacSystemFont, 'Segoe UI', Roboto, Helvetica, Arial, sans-serif, 'Apple Color Emoji', 'Segoe UI Emoji', 'Segoe UI Symbol'" x="457.422" y="636.516">
						647
				</text></g><g clip-path="url(#a)"><path fill="#6D00AF" d="M365 937h38v21h-38z"/></g><g clip-path="url(#a)"><path fill="none" stroke="#6D00AF" stroke-width="1.67" d="M365 937h38v21h-38z"/></g><g clip-path="url(#a)"><text fill="#fff" font-size="18.41" font-family="'DejaVu Sans', -apple-system, BlinkMacSystemFont, 'Segoe UI', Roboto, Helvetica, Arial, sans-serif, 'Apple Color Emoji', 'Segoe UI Emoji', 'Segoe UI Symbol'" x="366.422" y="954.516">
						647
				</text></g><g clip-path="url(#a)"><path fill="#6D00AF" d="M708 619h38v21h-38z"/></g><g clip-path="url(#a)"><path fill="none" stroke="#6D00AF" stroke-width="1.67" d="M708 619h38v21h-38z"/></g><g clip-path="url(#a)"><text fill="#fff" font-size="18.41" font-family="'DejaVu Sans', -apple-system, BlinkMacSystemFont, 'Segoe UI', Roboto, Helvetica, Arial, sans-serif, 'Apple Color Emoji', 'Segoe UI Emoji', 'Segoe UI Symbol'" x="709.422" y="636.516">
						647
				</text></g><g clip-path="url(#a)"><path fill="#6D00AF" d="M1872 778h38v21h-38z"/></g><g clip-path="url(#a)"><path fill="none" stroke="#6D00AF" stroke-width="1.67" d="M1872 778h38v21h-38z"/></g><g clip-path="url(#a)"><text fill="#fff" font-size="18.41" font-family="'DejaVu Sans', -apple-system, BlinkMacSystemFont, 'Segoe UI', Roboto, Helvetica, Arial, sans-serif, 'Apple Color Emoji', 'Segoe UI Emoji', 'Segoe UI Symbol'" x="1873.422" y="795.516">
						647
				</text></g><g clip-path="url(#a)"><path fill="#6D00AF" d="M1353 937h38v21h-38z"/></g><g clip-path="url(#a)"><path fill="none" stroke="#6D00AF" stroke-width="1.67" d="M1353 937h38v21h-38z"/></g><g clip-path="url(#a)"><text fill="#fff" font-size="18.41" font-family="'DejaVu Sans', -apple-system, BlinkMacSystemFont, 'Segoe UI', Roboto, Helvetica, Arial, sans-serif, 'Apple Color Emoji', 'Segoe UI Emoji', 'Segoe UI Symbol'" x="1354.422" y="954.516">
						647
				</text></g><g clip-path="url(#a)"><path fill="#6D00AF" d="M2013 937h38v21h-38z"/></g><g clip-path="url(#a)"><path fill="none" stroke="#6D00AF" stroke-width="1.67" d="M2013 937h38v21h-38z"/></g><g clip-path="url(#a)"><text fill="#fff" font-size="18.41" font-family="'DejaVu Sans', -apple-system, BlinkMacSystemFont, 'Segoe UI', Roboto, Helvetica, Arial, sans-serif, 'Apple Color Emoji', 'Segoe UI Emoji', 'Segoe UI Symbol'" x="2014.422" y="954.516">
						647
				</text></g><g clip-path="url(#a)"><path fill="#6D00AF" d="M2361 937h38v21h-38z"/></g><g clip-path="url(#a)"><path fill="none" stroke="#6D00AF" stroke-width="1.67" d="M2361 937h38v21h-38z"/></g><g clip-path="url(#a)"><text fill="#fff" font-size="18.41" font-family="'DejaVu Sans', -apple-system, BlinkMacSystemFont, 'Segoe UI', Roboto, Helvetica, Arial, sans-serif, 'Apple Color Emoji', 'Segoe UI Emoji', 'Segoe UI Symbol'" x="2362.422" y="954.516">
						647
				</text></g><g clip-path="url(#a)"><path fill="#E8D6F2" d="M1015 619h26v21h-26z"/></g><g clip-path="url(#a)"><path fill="none" stroke="#E8D6F2" stroke-width="1.67" d="M1015 619h26v21h-26z"/></g><g clip-path="url(#a)"><text font-size="18.41" font-family="'DejaVu Sans', -apple-system, BlinkMacSystemFont, 'Segoe UI', Roboto, Helvetica, Arial, sans-serif, 'Apple Color Emoji', 'Segoe UI Emoji', 'Segoe UI Symbol'" x="1016.281" y="636.516">
						32
				</text></g><g clip-path="url(#a)"><path fill="#E8D6F2" d="M1433 619h26v21h-26z"/></g><g clip-path="url(#a)"><path fill="none" stroke="#E8D6F2" stroke-width="1.67" d="M1433 619h26v21h-26z"/></g><g clip-path="url(#a)"><text font-size="18.41" font-family="'DejaVu Sans', -apple-system, BlinkMacSystemFont, 'Segoe UI', Roboto, Helvetica, Arial, sans-serif, 'Apple Color Emoji', 'Segoe UI Emoji', 'Segoe UI Symbol'" x="1434.281" y="636.516">
						32
				</text></g><g clip-path="url(#a)"><path fill="#E8D6F2" d="M1761 619h26v21h-26z"/></g><g clip-path="url(#a)"><path fill="none" stroke="#E8D6F2" stroke-width="1.67" d="M1761 619h26v21h-26z"/></g><g clip-path="url(#a)"><text font-size="18.41" font-family="'DejaVu Sans', -apple-system, BlinkMacSystemFont, 'Segoe UI', Roboto, Helvetica, Arial, sans-serif, 'Apple Color Emoji', 'Segoe UI Emoji', 'Segoe UI Symbol'" x="1762.281" y="636.516">
						32
				</text></g><g clip-path="url(#a)"><path fill="#8C36C0" d="M800 419h38v21h-38z"/></g><g clip-path="url(#a)"><path fill="none" stroke="#8C36C0" stroke-width="1.67" d="M800 419h38v21h-38z"/></g><g clip-path="url(#a)"><text fill="#fff" font-size="18.41" font-family="'DejaVu Sans', -apple-system, BlinkMacSystemFont, 'Segoe UI', Roboto, Helvetica, Arial, sans-serif, 'Apple Color Emoji', 'Segoe UI Emoji', 'Segoe UI Symbol'" x="801.422" y="436.516">
						615
				</text></g><g clip-path="url(#a)"><path fill="#8C36C0" d="M1152 419h38v21h-38z"/></g><g clip-path="url(#a)"><path fill="none" stroke="#8C36C0" stroke-width="1.67" d="M1152 419h38v21h-38z"/></g><g clip-path="url(#a)"><text fill="#fff" font-size="18.41" font-family="'DejaVu Sans', -apple-system, BlinkMacSystemFont, 'Segoe UI', Roboto, Helvetica, Arial, sans-serif, 'Apple Color Emoji', 'Segoe UI Emoji', 'Segoe UI Symbol'" x="1153.422" y="436.516">
						615
				</text></g><g clip-path="url(#a)"><path fill="#8C36C0" d="M1872 419h38v21h-38z"/></g><g clip-path="url(#a)"><path fill="none" stroke="#8C36C0" stroke-width="1.67" d="M1872 419h38v21h-38z"/></g><g clip-path="url(#a)"><text fill="#fff" font-size="18.41" font-family="'DejaVu Sans', -apple-system, BlinkMacSystemFont, 'Segoe UI', Roboto, Helvetica, Arial, sans-serif, 'Apple Color Emoji', 'Segoe UI Emoji', 'Segoe UI Symbol'" x="1873.422" y="436.516">
						615
				</text></g><g clip-path="url(#a)"><path fill="#C9A1E1" d="M1252 143h38v21h-38z"/></g><g clip-path="url(#a)"><path fill="none" stroke="#C9A1E1" stroke-width="1.67" d="M1252 143h38v21h-38z"/></g><g clip-path="url(#a)"><text font-size="18.41" font-family="'DejaVu Sans', -apple-system, BlinkMacSystemFont, 'Segoe UI', Roboto, Helvetica, Arial, sans-serif, 'Apple Color Emoji', 'Segoe UI Emoji', 'Segoe UI Symbol'" x="1253.422" y="160.516">
						184
				</text></g><g clip-path="url(#a)"><path fill="#C9A1E1" d="M1738 143h38v21h-38z"/></g><g clip-path="url(#a)"><path fill="none" stroke="#C9A1E1" stroke-width="1.67" d="M1738 143h38v21h-38z"/></g><g clip-path="url(#a)"><text font-size="18.41" font-family="'DejaVu Sans', -apple-system, BlinkMacSystemFont, 'Segoe UI', Roboto, Helvetica, Arial, sans-serif, 'Apple Color Emoji', 'Segoe UI Emoji', 'Segoe UI Symbol'" x="1739.422" y="160.516">
						184
				</text></g><g clip-path="url(#a)"><path fill="#AA6BD1" d="M1360 419h38v21h-38z"/></g><g clip-path="url(#a)"><path fill="none" stroke="#AA6BD1" stroke-width="1.67" d="M1360 419h38v21h-38z"/></g><g clip-path="url(#a)"><text fill="#fff" font-size="18.41" font-family="'DejaVu Sans', -apple-system, BlinkMacSystemFont, 'Segoe UI', Roboto, Helvetica, Arial, sans-serif, 'Apple Color Emoji', 'Segoe UI Emoji', 'Segoe UI Symbol'" x="1361.422" y="436.516">
						431
				</text></g><g clip-path="url(#a)"><path fill="#AA6BD1" d="M1637 419h38v21h-38z"/></g><g clip-path="url(#a)"><path fill="none" stroke="#AA6BD1" stroke-width="1.67" d="M1637 419h38v21h-38z"/></g><g clip-path="url(#a)"><text fill="#fff" font-size="18.41" font-family="'DejaVu Sans', -apple-system, BlinkMacSystemFont, 'Segoe UI', Roboto, Helvetica, Arial, sans-serif, 'Apple Color Emoji', 'Segoe UI Emoji', 'Segoe UI Symbol'" x="1638.422" y="436.516">
						431
				</text></g></g></defs><use href="#b"/></svg>